<svg width="70" height="70" viewBox="0 0 70 70" fill="none" xmlns="http://www.w3.org/2000/svg">
<g clip-path="url(#clip0_7_94)">
<path d="M25.334 2.73438C23.8848 2.95312 22.7227 3.82812 22.0938 5.18164C21.8203 5.76953 21.8066 6.07031 21.7656 9.73438L21.7246 13.6719H23.2285H24.7324L24.7734 10.0352L24.8145 6.39844L25.1836 6.08398C25.4297 5.87891 25.8125 5.72852 26.2773 5.67383C26.6738 5.63281 30.8848 5.60547 35.6152 5.63281C44.8711 5.67383 44.7754 5.67383 45.1035 6.38477C45.1992 6.58984 45.2539 7.92969 45.2539 10.1855V13.6719H46.7715H48.2754L48.2344 9.66602C48.1934 5.81055 48.1797 5.66016 47.8789 5.08594C47.1816 3.77344 46.1426 3.00781 44.707 2.73438C43.8594 2.57031 26.4277 2.57031 25.334 2.73438Z" fill="#1093A5"/>
<path d="M8.54489 16.1328C4.8945 16.502 1.90035 18.6621 0.656214 21.8203C-3.63141e-05 23.4746 -3.63184e-05 23.3242 -3.63184e-05 41.6992C-3.63184e-05 61.127 -0.0547238 60.0469 1.03903 62.3301C2.43356 65.1875 5.12692 66.8965 8.832 67.2656C10.6504 67.4434 59.3496 67.4434 61.1679 67.2656C64.873 66.8965 67.5664 65.1875 68.9609 62.3301C70.0547 60.0469 70 61.127 70 41.6992C70 23.3242 70 23.4746 69.3437 21.8203C68.291 19.1406 66.0488 17.2266 62.959 16.3652L61.8652 16.0645L35.7519 16.0508C21.3964 16.0371 9.14645 16.0781 8.54489 16.1328ZM40.2773 27.2891C41.2207 27.9863 41.2207 27.9863 41.2617 31.6504L41.3027 34.9863L44.6386 35.0273C48.3027 35.0684 48.3027 35.0684 49 36.0117C49.2734 36.3809 49.2871 36.5449 49.2871 41.2891C49.2871 46.0332 49.2734 46.1973 49 46.5664C48.3027 47.5098 48.3027 47.5098 44.625 47.5508L41.289 47.5918V50.8457C41.289 53.9902 41.2754 54.1133 40.9882 54.5508C40.8105 54.7969 40.4961 55.1387 40.291 55.2891C39.9082 55.5625 39.7578 55.5762 35 55.5762C30.2422 55.5762 30.0918 55.5625 29.7089 55.2891C29.5039 55.1387 29.1894 54.7969 29.0254 54.5508C28.7246 54.1133 28.7109 53.9902 28.7109 50.8457V47.5918L25.375 47.5508C21.6972 47.5098 21.6972 47.5098 21 46.5664C20.7265 46.1973 20.7129 46.0332 20.7129 41.2891C20.7129 36.5449 20.7265 36.3809 21 36.0117C21.6972 35.0684 21.6972 35.0684 25.375 35.0273L28.7109 34.9863V31.7734C28.7109 28.3555 28.7382 28.1504 29.4218 27.5215C29.5859 27.3574 29.8867 27.166 30.0781 27.084C30.2968 27.002 32.1836 26.9609 35.164 26.9746C39.7168 27.002 39.9218 27.0156 40.2773 27.2891Z" fill="url(#paint0_linear_7_94)"/>
<path d="M31.4453 33.1133C31.4453 36.3262 31.4316 36.5996 31.1719 37.0234C31.0215 37.2695 30.7344 37.5293 30.543 37.5977C30.3516 37.6797 28.6699 37.7344 26.7832 37.7344H23.3789V41.2891V44.8438H26.7969C31.7324 44.8438 31.4453 44.5566 31.4453 49.4922V52.9102H35H38.541L38.582 49.2871L38.623 45.6641L39.0059 45.2949L39.375 44.9121L42.998 44.8711L46.6211 44.8301V41.2891V37.7344H43.2168C41.3301 37.7344 39.6484 37.6797 39.457 37.5977C39.2656 37.5293 38.9785 37.2695 38.8281 37.0234C38.5684 36.5996 38.5547 36.3262 38.5547 33.1133V29.668H35H31.4453V33.1133Z" fill="#1FBDD2"/>
</g>
<defs>
<linearGradient id="paint0_linear_7_94" x1="64.8047" y1="67.4023" x2="-3.46308e-05" y2="21.6699" gradientUnits="userSpaceOnUse">
<stop offset="0.0453651" stop-color="#1093A5"/>
<stop offset="1" stop-color="#14C7E0"/>
</linearGradient>
<clipPath id="clip0_7_94">
<rect width="70" height="70" fill="white"/>
</clipPath>
</defs>
</svg>
