<svg width="64" height="64" viewBox="0 0 64 64" fill="none" xmlns="http://www.w3.org/2000/svg">
<g clip-path="url(#clip0_7_99)">
<path d="M27.9749 0.187492C21.9874 1.01249 16.5749 3.32499 11.8749 7.07499C10.5124 8.16249 8.1624 10.5125 7.0749 11.875C3.8749 15.875 1.5374 20.825 0.574902 25.625C-0.200098 29.5125 -0.200098 34.4875 0.574902 38.375C1.5374 43.1875 3.8874 48.15 7.0874 52.125C8.2749 53.6125 10.4499 55.775 11.9999 57C16.3374 60.45 21.2624 62.65 26.8124 63.6375C28.7124 63.975 33.1749 64.1 35.2749 63.8875C42.5749 63.125 49.4124 59.8625 54.6374 54.6375C59.0374 50.225 62.1499 44.5125 63.3749 38.5625C64.2249 34.4125 64.2249 29.5125 63.3749 25.4125C62.3874 20.65 60.0874 15.8375 56.9249 11.875C55.8249 10.5125 53.4874 8.17499 52.1249 7.07499C48.1374 3.88749 43.1874 1.53749 38.3749 0.574993C35.4874 -0.0125046 30.7124 -0.187508 27.9749 0.187492ZM32.8749 7.93749C33.0624 8.03749 33.3624 8.32499 33.5249 8.58749C33.7999 9.03749 33.8124 9.16249 33.8124 11.375C33.8124 13.5375 33.7999 13.7125 33.5374 14.125C33.1874 14.7 32.6499 15 31.9999 15C31.3499 15 30.8124 14.7 30.4624 14.125C30.2124 13.7125 30.1874 13.5375 30.1874 11.4375C30.1874 8.88749 30.2749 8.53749 30.9874 8.04999C31.5124 7.69999 32.3124 7.64999 32.8749 7.93749ZM16.8749 14.525C18.1499 15.1875 18.1999 16.8625 16.9749 17.6375C16.4499 17.9625 15.5749 17.9 15.0249 17.525C14.5499 17.1875 14.1999 16.3375 14.3124 15.7875C14.4499 15.0375 15.3374 14.275 16.0624 14.25C16.2124 14.25 16.5749 14.375 16.8749 14.525ZM48.5374 14.425C49.0624 14.6375 49.5999 15.275 49.6874 15.7875C49.7999 16.3375 49.4499 17.1875 48.9749 17.525C48.4249 17.9 47.5499 17.9625 47.0249 17.6375C45.7999 16.8625 45.8499 15.1875 47.1249 14.525C47.7624 14.2 47.9874 14.1875 48.5374 14.425ZM32.8749 19.1875C33.0624 19.2875 33.3624 19.575 33.5249 19.8375L33.8124 20.3125L33.8499 25.8125L33.8874 31.3125L39.2999 36.75C42.2874 39.7375 44.7874 42.3125 44.8624 42.4625C45.0624 42.85 45.0374 43.7 44.8124 44.1375C44.4124 44.9 43.1999 45.25 42.3999 44.825C42.2124 44.725 39.4374 42.0125 36.2249 38.7875C32.1749 34.725 30.3624 32.825 30.2874 32.5625C30.2374 32.35 30.1874 29.5375 30.1874 26.3125C30.1874 19.8 30.1874 19.85 30.9874 19.3C31.5124 18.95 32.3124 18.9 32.8749 19.1875ZM14.0874 30.4125C15.2874 31.0625 15.2999 32.8375 14.0999 33.5625C13.7249 33.7875 13.4624 33.8125 11.3749 33.8125C9.2874 33.8125 9.0249 33.7875 8.6499 33.5625C7.5249 32.8875 7.4249 31.2375 8.4624 30.5625C9.0249 30.1875 9.4499 30.1375 11.6249 30.1625C13.2874 30.1875 13.7624 30.2375 14.0874 30.4125ZM55.3374 30.4125C56.5374 31.0625 56.5499 32.8375 55.3499 33.5625C54.9749 33.7875 54.7124 33.8125 52.6249 33.8125C50.5374 33.8125 50.2749 33.7875 49.8999 33.5625C48.7749 32.8875 48.6749 31.2375 49.7124 30.5625C50.2749 30.1875 50.6999 30.1375 52.8749 30.1625C54.5374 30.1875 55.0124 30.2375 55.3374 30.4125ZM16.9749 46.375C17.5999 46.75 17.8999 47.325 17.8374 48.0125C17.7749 48.775 17.3874 49.3 16.6874 49.575C15.9499 49.85 15.3124 49.675 14.7624 49.0625C14.2249 48.45 14.1499 47.8875 14.5124 47.1625C15.0124 46.1875 16.0999 45.8375 16.9749 46.375ZM48.9749 46.475C49.4499 46.8125 49.7999 47.6625 49.6874 48.2125C49.5874 48.7875 48.9499 49.4625 48.3624 49.6375C47.9624 49.7625 47.7874 49.75 47.3124 49.575C45.8874 49.025 45.7249 47.1875 47.0249 46.3625C47.5499 46.0375 48.4249 46.1 48.9749 46.475ZM32.8999 49.2125C33.0999 49.3375 33.3874 49.6375 33.5374 49.875C33.7999 50.2875 33.8124 50.4625 33.8124 52.625C33.8124 54.7875 33.7999 54.9625 33.5374 55.375C33.1874 55.95 32.6499 56.25 31.9999 56.25C31.3499 56.25 30.8124 55.95 30.4624 55.375C30.1999 54.9625 30.1874 54.7875 30.1874 52.625C30.1874 50.6375 30.2249 50.25 30.4124 49.9C30.8624 49.0625 32.0749 48.7375 32.8999 49.2125Z" fill="url(#paint0_linear_7_99)"/>
</g>
<defs>
<linearGradient id="paint0_linear_7_99" x1="57.4999" y1="50" x2="-9.22878e-05" y2="12.75" gradientUnits="userSpaceOnUse">
<stop offset="0.157294" stop-color="#1093A5"/>
<stop offset="0.74298" stop-color="#59CEDE"/>
</linearGradient>
<clipPath id="clip0_7_99">
<rect width="64" height="64" fill="white"/>
</clipPath>
</defs>
</svg>
