<svg width="83" height="83" viewBox="0 0 83 83" fill="none" xmlns="http://www.w3.org/2000/svg">
<path d="M34.4158 8.60801C33.4756 8.96465 32.4543 9.87246 32.0652 10.7154C31.9193 11.0234 31.5303 12.4176 31.2223 13.8279C30.898 15.2383 30.6062 16.4541 30.5738 16.5189C30.5252 16.5838 30.0227 16.6973 29.4715 16.7459C24.9 17.1674 22.0469 18.7885 22.0469 20.9445C22.0469 24.6893 31.2223 28.0449 41.5 28.0449C51.8426 28.0449 60.9531 24.7055 60.9531 20.9283C60.9531 19.8098 60.1426 18.7398 58.7809 18.0428C57.792 17.5402 55.409 16.9242 53.8689 16.7783C53.2367 16.7135 52.6369 16.6 52.5396 16.5352C52.4262 16.4703 52.0695 15.1734 51.7129 13.6658C51.032 10.6506 50.6916 9.90488 49.6379 9.17539C47.9844 8.04062 46.493 7.99199 43.575 8.94844L41.5 9.6293L39.425 8.94844C37.0258 8.1541 35.81 8.07305 34.4158 8.60801Z" fill="url(#paint0_linear_7_87)"/>
<path d="M28.4339 29.6174C28.6285 30.9629 29.2121 32.9406 29.8281 34.3834C31.5951 38.5334 35.6478 42.3916 39.3763 43.5102C40.5111 43.8344 42.4888 43.8506 43.6236 43.5102C47.3359 42.424 51.4859 38.4362 53.2529 34.2213C53.9662 32.5192 54.8578 28.8555 54.5498 28.8555C54.4849 28.8555 53.7716 29.0338 52.9449 29.2608C46.8009 30.9143 38.7603 31.1088 32.1949 29.7471C31.1087 29.5201 29.8767 29.2283 29.439 29.0987C28.3205 28.7582 28.3205 28.7582 28.4339 29.6174Z" fill="url(#paint1_linear_7_87)"/>
<path d="M31.5627 43.7371C30.509 44.8395 30.201 45.423 30.3793 45.9904C30.4279 46.1525 31.1736 47.5953 32.0166 49.2002C32.8596 50.7889 33.5566 52.1506 33.5566 52.2154C33.5566 52.2803 33.0055 52.3775 32.3246 52.4424C30.8818 52.5721 30.3145 52.9611 30.3145 53.8203C30.3145 54.0959 31.5627 57.3867 33.0703 61.1477L35.8262 67.9725V71.3605V74.7324H41.5H47.1738V71.3605V67.9725L49.9297 61.1477C51.4373 57.4029 52.6855 54.1121 52.6855 53.8527C52.6855 52.9125 51.7939 52.3775 50.2215 52.3613C49.8973 52.3613 49.5893 52.2965 49.5406 52.2316C49.492 52.1506 50.1891 50.7078 51.0645 49.0219C51.9561 47.3359 52.6855 45.8283 52.6855 45.6662C52.6855 45.1637 52.2641 44.5314 51.259 43.5426L50.2863 42.5861L49.265 43.348C43.802 47.4656 39.0846 47.4494 33.6863 43.3318C33.1838 42.959 32.7461 42.6348 32.6975 42.6348C32.665 42.6348 32.1625 43.1373 31.5627 43.7371Z" fill="url(#paint2_linear_7_87)"/>
<path d="M25.127 48.0816C21.1715 49.1191 19.2424 50.2053 17.4916 52.3127C16.6648 53.334 15.7895 54.9875 15.449 56.2682C15.1896 57.1922 15.1572 58.1811 15.1572 65.6057V73.8895L15.5463 74.3109L15.9354 74.7324H24.592H33.2324V71.5713V68.4102L30.4604 61.5529C27.7369 54.8092 27.7045 54.6957 27.7693 53.7068C27.8504 52.5559 28.3691 51.5346 29.2121 50.8213L29.7309 50.3836L28.9365 48.8598C28.4826 48.0168 28.0611 47.3359 27.9639 47.3521C27.8828 47.3521 26.6021 47.6926 25.127 48.0816Z" fill="url(#paint3_linear_7_87)"/>
<path d="M54.2418 48.5031C53.2205 50.3674 53.2205 50.335 53.8041 50.8375C54.6309 51.5346 55.1496 52.5721 55.2307 53.7068C55.2955 54.6957 55.2631 54.8092 52.5396 61.5691L49.7676 68.4264V71.5713V74.7324H58.408H67.0646L67.4537 74.3109L67.8428 73.8895V65.6057C67.8428 57.3705 67.8428 57.2895 67.4699 56.0898C66.8863 54.258 66.0758 52.9125 64.6979 51.5508C62.9471 49.8162 61.5367 49.1191 57.9217 48.2113C56.3654 47.8223 55.0361 47.498 54.9551 47.498C54.874 47.498 54.5498 47.952 54.2418 48.5031Z" fill="url(#paint4_linear_7_87)"/>
<defs>
<linearGradient id="paint0_linear_7_87" x1="58.0202" y1="28.3585" x2="50.3754" y2="2.67458" gradientUnits="userSpaceOnUse">
<stop offset="0.338034" stop-color="#1093A5"/>
<stop offset="0.878226" stop-color="#57CDDD"/>
</linearGradient>
<linearGradient id="paint1_linear_7_87" x1="52.6353" y1="43.9957" x2="46.3235" y2="25.0266" gradientUnits="userSpaceOnUse">
<stop offset="0.338034" stop-color="#1093A5"/>
<stop offset="0.878226" stop-color="#57CDDD"/>
</linearGradient>
<linearGradient id="paint2_linear_7_87" x1="50.9991" y1="75.2421" x2="28.6117" y2="48.6338" gradientUnits="userSpaceOnUse">
<stop offset="0.338034" stop-color="#1093A5"/>
<stop offset="0.878226" stop-color="#57CDDD"/>
</linearGradient>
<linearGradient id="paint3_linear_7_87" x1="31.8698" y1="75.1665" x2="12.6546" y2="53.5024" gradientUnits="userSpaceOnUse">
<stop offset="0.338034" stop-color="#1093A5"/>
<stop offset="0.878226" stop-color="#57CDDD"/>
</linearGradient>
<linearGradient id="paint4_linear_7_87" x1="66.4802" y1="75.1642" x2="47.38" y2="53.5142" gradientUnits="userSpaceOnUse">
<stop offset="0.338034" stop-color="#1093A5"/>
<stop offset="0.878226" stop-color="#57CDDD"/>
</linearGradient>
</defs>
</svg>
