<svg width="54" height="54" viewBox="0 0 54 54" fill="none" xmlns="http://www.w3.org/2000/svg">
<g clip-path="url(#clip0_24_234)">
<path d="M23.5196 0.168842C12.7407 1.55048 3.78642 9.35517 0.896573 19.881C0.274307 22.1696 0.0844637 23.5091 0.0317293 26.2407C-0.0315519 28.9302 0.06337 30.2591 0.485245 32.3368C1.87743 39.3821 6.11728 45.647 12.1817 49.6337C15.6727 51.9224 19.5013 53.3251 23.7306 53.8524C25.3337 54.0528 28.7087 54.0423 30.3751 53.8419C38.2642 52.861 45.3095 48.4419 49.7075 41.713C51.9224 38.3274 53.3356 34.4356 53.8419 30.3751C54.0528 28.6665 54.0528 25.3337 53.8419 23.6251C52.8716 15.7782 48.4735 8.74345 41.8184 4.3665C38.3485 2.08837 34.4884 0.675091 30.3751 0.158295C28.7614 -0.0420952 25.0911 -0.0315475 23.5196 0.168842ZM39.8567 16.6642C40.2153 17.0333 40.3419 17.529 40.247 18.1724C40.0255 19.5329 35.7224 39.5614 35.5747 39.8989C35.3532 40.4052 34.8786 40.8165 34.5095 40.8165C33.9821 40.806 33.3809 40.4263 30.1325 38.0321C28.3395 36.7138 26.8102 35.6063 26.7259 35.5747C26.6309 35.5431 25.9138 36.1653 24.7747 37.2411C22.8763 39.0657 22.8341 39.0974 22.3595 39.2345C22.0747 39.3188 22.0642 39.3083 22.1063 38.9286C22.1274 38.7177 22.2224 37.431 22.3067 36.0704C22.3911 34.7099 22.4966 33.3493 22.5282 33.0434L22.5809 32.495L28.9091 26.7892C32.938 23.1399 35.2267 21.0095 35.2267 20.8829C35.2267 20.6087 34.8892 20.5243 34.4673 20.7036C34.2774 20.788 30.6493 23.045 26.4095 25.7134L18.6997 30.5649L16.0208 29.7317C14.5442 29.2677 12.9517 28.772 12.4876 28.6243C11.0849 28.2024 10.7263 27.6435 11.4329 27.0212C11.6438 26.8419 12.4032 26.4727 13.2997 26.1247C14.1329 25.7977 20.1552 23.4669 26.6837 20.9462C35.9544 17.3708 38.6544 16.3583 39.0446 16.3583C39.4559 16.3477 39.5825 16.4005 39.8567 16.6642Z" fill="#1093A5"/>
</g>
<defs>
<clipPath id="clip0_24_234">
<rect width="54" height="54" fill="white"/>
</clipPath>
</defs>
</svg>
