<svg width="4297" height="2583" viewBox="0 0 4297 2583" fill="none" xmlns="http://www.w3.org/2000/svg">
<path d="M2038.31 1.57788C1382.85 48.3962 832.451 337.299 444.202 839.739C202.118 1153.76 55.9535 1519.17 12.561 1926.83C5.70954 1988.5 0 2061.58 0 2090.13V2141.51H850.721H1701.44L1700.3 2103.83C1700.3 2084.42 1696.88 2059.3 1692.31 2049.02C1687.74 2037.6 1613.52 1953.1 1525.59 1860.6C1438.8 1768.11 1357.73 1671.05 1346.31 1644.78C1328.04 1604.82 1324.61 1565.99 1324.61 1311.35C1324.61 1027.01 1324.61 1023.59 1349.74 1006.46C1389.7 977.909 1444.51 983.619 1471.92 1017.88C1493.62 1045.28 1495.9 1063.55 1495.9 1226.85V1404.98L1461.64 1436.96C1435.38 1462.08 1427.39 1479.21 1427.39 1513.46C1427.39 1561.42 1436.52 1573.99 1567.84 1717.87C1604.38 1757.83 1643.21 1806.93 1653.48 1828.63C1663.76 1851.47 1679.75 1867.46 1692.31 1867.46C1741.41 1867.46 1698.02 1785.24 1583.83 1665.34C1473.06 1547.72 1460.5 1523.74 1492.47 1480.35C1538.15 1419.83 1550.71 1427.82 1772.24 1647.07C1885.29 1758.97 1985.78 1865.17 1994.91 1884.58C2006.33 1906.28 2015.47 1959.95 2018.89 2029.61L2024.6 2141.51H2074.85C2119.38 2141.51 2125.09 2139.23 2118.24 2120.96C2113.67 2110.68 2107.96 2080.99 2106.82 2055.87C2104.54 2030.75 2099.97 2001.06 2095.4 1989.64C2090.83 1979.36 2090.83 1956.52 2094.26 1940.54C2099.97 1917.7 2096.54 1906.28 2078.27 1893.72C2054.29 1876.59 2047.44 1828.63 2066.85 1816.07C2072.56 1812.64 2061.14 1794.37 2041.73 1777.24C2009.76 1748.7 2006.33 1740.7 2017.75 1716.72C2029.17 1692.74 2026.89 1687.03 1997.2 1669.91C1962.94 1651.64 1953.8 1619.66 1976.64 1596.82C1985.78 1587.69 1976.64 1581.98 1942.39 1576.27C1917.26 1571.7 1893.28 1563.71 1888.72 1558C1885.29 1552.29 1873.87 1547.72 1862.45 1547.72C1835.05 1547.72 1747.12 1504.33 1747.12 1490.63C1747.12 1483.77 1740.27 1479.21 1732.27 1479.21C1724.28 1479.21 1706.01 1471.21 1691.17 1460.94C1654.62 1434.67 1677.46 1422.11 1764.25 1422.11C1812.21 1422.11 1853.32 1412.98 1901.28 1392.42C1938.96 1376.44 1981.21 1360.45 1994.91 1357.02C2028.03 1349.03 2066.85 1390.14 2066.85 1433.53C2066.85 1473.5 2093.12 1490.63 2151.35 1490.63C2199.31 1490.63 2226.72 1465.5 2226.72 1423.25C2226.72 1392.42 2256.41 1353.6 2279.25 1353.6C2284.96 1353.6 2326.07 1368.44 2369.46 1386.71C2417.42 1407.27 2482.51 1423.25 2532.75 1428.96C2620.68 1436.96 2635.52 1450.66 2580.71 1471.21C2562.44 1478.07 2546.45 1488.34 2546.45 1492.91C2546.45 1504.33 2455.1 1547.72 2431.12 1547.72C2419.7 1547.72 2408.28 1552.29 2404.86 1558C2400.29 1563.71 2376.31 1571.7 2351.19 1576.27C2316.93 1581.98 2307.8 1587.69 2316.93 1596.82C2338.63 1618.52 2330.63 1650.49 2298.66 1671.05C2272.4 1687.03 2267.83 1697.31 2270.11 1727C2272.4 1753.26 2266.69 1768.11 2246.13 1782.95C2222.15 1801.23 2221.01 1808.08 2231.29 1836.62C2242.71 1865.17 2240.42 1872.02 2216.44 1892.58C2192.46 1910.85 2187.9 1923.41 2190.18 1973.65C2190.18 2005.63 2186.75 2037.6 2182.19 2044.45C2176.48 2050.16 2169.63 2075.28 2167.34 2098.12L2162.77 2141.51H2217.59H2272.4V2036.46C2272.4 1955.38 2276.96 1921.13 2295.24 1885.73C2326.07 1820.64 2705.18 1444.95 2738.3 1444.95C2752 1444.95 2773.69 1455.23 2786.26 1467.79C2828.51 1510.04 2815.95 1540.87 2708.61 1659.63C2652.65 1720.15 2601.27 1781.81 2594.42 1795.52C2572.72 1834.34 2577.29 1867.46 2603.55 1867.46C2618.4 1867.46 2626.39 1859.46 2626.39 1845.76C2626.39 1833.2 2675.49 1768.11 2736.01 1700.74C2796.53 1633.36 2850.2 1565.99 2855.91 1550.01C2870.76 1511.18 2849.06 1449.52 2812.52 1425.54L2785.11 1407.27L2788.54 1219.99C2791.97 1038.43 2793.11 1031.58 2819.37 1009.88C2859.34 977.909 2916.43 981.335 2946.12 1019.02C2970.1 1048.71 2970.1 1058.98 2966.68 1330.76L2963.25 1610.53L2932.42 1661.91C2915.29 1690.46 2831.93 1787.52 2746.29 1877.73C2596.7 2036.46 2592.13 2043.31 2592.13 2091.27V2141.51H3445.14H4297L4290.15 2006.77C4268.45 1596.82 4122.29 1198.3 3872.21 862.577C3784.28 746.102 3601.58 557.687 3483.96 464.051C3195.06 233.385 2828.51 75.802 2466.52 24.4163C2336.34 6.14551 2129.66 -4.13159 2038.31 1.57788ZM2340.91 337.299V485.747H2489.36H2637.81V685.581V885.415H2489.36H2340.91V1033.86V1182.31H2146.79H1952.66V1033.86V886.557L1801.93 883.131L1650.06 879.705L1646.63 682.155L1644.35 485.747H1798.51H1952.66V337.299V188.851H2146.79H2340.91V337.299ZM2181.04 1353.6C2209.59 1382.14 2209.59 1393.56 2182.19 1420.97C2169.63 1433.53 2162.77 1446.09 2167.34 1449.52C2170.77 1452.94 2163.92 1456.37 2152.5 1456.37C2141.08 1456.37 2122.81 1444.95 2111.39 1431.25C2056.58 1368.44 2122.81 1295.36 2181.04 1353.6Z" fill="#159696"/>
<path d="M2101.11 1595.68C2101.11 1600.25 2080.56 1604.82 2054.29 1604.82C2016.61 1604.82 2008.62 1608.24 2012.04 1624.23C2014.33 1635.65 2030.31 1648.21 2049.73 1651.64C2095.4 1661.91 2214.16 1661.91 2249.56 1651.64C2289.53 1640.22 2286.1 1611.67 2243.85 1607.1C2225.58 1604.82 2201.6 1601.39 2192.46 1596.82C2163.92 1586.55 2101.11 1585.4 2101.11 1595.68Z" fill="#159696"/>
<path d="M2107.96 1705.3C2089.69 1709.87 2072.56 1719.01 2070.28 1727C2064.57 1744.13 2107.96 1769.25 2118.24 1753.26C2129.66 1734.99 2169.63 1739.56 2169.63 1758.97C2169.63 1782.95 2185.61 1780.67 2209.59 1753.26C2223.29 1738.42 2226.72 1725.86 2219.87 1719.01C2203.88 1703.02 2146.79 1696.17 2107.96 1705.3Z" fill="#159696"/>
<path d="M2158.21 1862.89C2158.21 1878.88 2161.63 1878.88 2175.33 1867.46C2184.47 1859.46 2192.46 1851.47 2192.46 1849.19C2192.46 1846.9 2184.47 1844.62 2175.33 1844.62C2166.2 1844.62 2158.21 1852.61 2158.21 1862.89Z" fill="#159696"/>
<path d="M2318.07 2404.15V2518.34H3305.82H4293.57V2404.15V2289.96H3305.82H2318.07V2404.15Z" fill="#159696"/>
<path d="M18.24 2493V2269H128.64C153.6 2269 175.573 2273.59 194.56 2282.76C213.547 2291.72 228.373 2304.52 239.04 2321.16C249.707 2337.8 255.04 2357.64 255.04 2380.68C255.04 2403.93 249.707 2423.99 239.04 2440.84C228.373 2457.48 213.547 2470.39 194.56 2479.56C175.573 2488.52 153.6 2493 128.64 2493H18.24ZM93.76 2434.12H125.44C136.107 2434.12 145.387 2432.09 153.28 2428.04C161.387 2423.99 167.68 2418.01 172.16 2410.12C176.64 2402.01 178.88 2392.2 178.88 2380.68C178.88 2369.37 176.64 2359.77 172.16 2351.88C167.68 2343.99 161.387 2338.01 153.28 2333.96C145.387 2329.91 136.107 2327.88 125.44 2327.88H93.76V2434.12ZM280.375 2493V2317.96H349.175V2370.76L337.975 2355.72C343.308 2342.07 351.842 2331.83 363.575 2325C375.308 2318.17 389.388 2314.76 405.815 2314.76V2378.76C402.615 2378.33 399.735 2378.01 397.175 2377.8C394.828 2377.59 392.375 2377.48 389.815 2377.48C378.935 2377.48 369.975 2380.36 362.935 2386.12C356.108 2391.67 352.695 2401.37 352.695 2415.24V2493H280.375ZM455.828 2496.2C443.881 2496.2 433.854 2492.36 425.748 2484.68C417.641 2476.79 413.588 2466.76 413.588 2454.6C413.588 2442.23 417.641 2432.31 425.748 2424.84C433.854 2417.37 443.881 2413.64 455.828 2413.64C467.774 2413.64 477.801 2417.37 485.908 2424.84C494.014 2432.31 498.068 2442.23 498.068 2454.6C498.068 2466.76 494.014 2476.79 485.908 2484.68C477.801 2492.36 467.774 2496.2 455.828 2496.2ZM667.193 2493V2327.56H601.593V2269H808.313V2327.56H742.713V2493H667.193ZM895.523 2496.2C881.656 2496.2 869.069 2493.43 857.763 2487.88C846.669 2482.12 837.923 2473.27 831.523 2461.32C825.123 2449.16 821.923 2433.59 821.923 2414.6V2317.96H894.243V2402.12C894.243 2414.49 896.269 2423.13 900.323 2428.04C904.376 2432.95 909.923 2435.4 916.963 2435.4C921.229 2435.4 925.176 2434.33 928.803 2432.2C932.643 2429.85 935.736 2426.12 938.083 2421C940.429 2415.67 941.603 2408.73 941.603 2400.2V2317.96H1013.92V2493H945.123V2442.44L958.883 2456.2C952.696 2469.85 943.843 2479.99 932.323 2486.6C921.016 2493 908.749 2496.2 895.523 2496.2ZM1277.68 2314.76C1290.91 2314.76 1302.75 2317.53 1313.2 2323.08C1323.87 2328.41 1332.19 2336.84 1338.16 2348.36C1344.35 2359.88 1347.44 2374.81 1347.44 2393.16V2493H1275.12V2405.64C1275.12 2394.76 1273.31 2387.08 1269.68 2382.6C1266.05 2377.91 1261.36 2375.56 1255.6 2375.56C1251.33 2375.56 1247.49 2376.63 1244.08 2378.76C1240.67 2380.89 1237.89 2384.31 1235.76 2389C1233.84 2393.48 1232.88 2399.67 1232.88 2407.56V2493H1160.56V2405.64C1160.56 2394.76 1158.85 2387.08 1155.44 2382.6C1152.03 2377.91 1147.23 2375.56 1141.04 2375.56C1136.77 2375.56 1132.93 2376.63 1129.52 2378.76C1126.11 2380.89 1123.33 2384.31 1121.2 2389C1119.28 2393.48 1118.32 2399.67 1118.32 2407.56V2493H1046V2317.96H1114.8V2368.2L1100.72 2354.12C1107.33 2340.89 1116.19 2331.08 1127.28 2324.68C1138.37 2318.07 1150.75 2314.76 1164.4 2314.76C1179.76 2314.76 1193.31 2318.81 1205.04 2326.92C1216.99 2334.81 1224.99 2347.4 1229.04 2364.68L1206.96 2361.16C1213.36 2346.65 1222.64 2335.35 1234.8 2327.24C1247.17 2318.92 1261.47 2314.76 1277.68 2314.76ZM1484.73 2493V2461.96L1479.61 2453.64V2394.76C1479.61 2386.23 1476.95 2379.72 1471.61 2375.24C1466.49 2370.76 1458.07 2368.52 1446.33 2368.52C1438.44 2368.52 1430.44 2369.8 1422.33 2372.36C1414.23 2374.71 1407.29 2378.01 1401.53 2382.28L1378.49 2334.6C1388.73 2328.2 1401 2323.29 1415.29 2319.88C1429.59 2316.47 1443.56 2314.76 1457.21 2314.76C1487.29 2314.76 1510.55 2321.48 1526.97 2334.92C1543.61 2348.36 1551.93 2369.69 1551.93 2398.92V2493H1484.73ZM1435.13 2496.2C1420.84 2496.2 1408.89 2493.75 1399.29 2488.84C1389.69 2483.93 1382.44 2477.43 1377.53 2469.32C1372.63 2461 1370.17 2451.83 1370.17 2441.8C1370.17 2430.49 1373.05 2420.89 1378.81 2413C1384.57 2405.11 1393.32 2399.13 1405.05 2395.08C1417 2391.03 1432.04 2389 1450.17 2389H1486.65V2423.88H1461.69C1454.01 2423.88 1448.36 2425.16 1444.73 2427.72C1441.32 2430.07 1439.61 2433.69 1439.61 2438.6C1439.61 2442.65 1441.11 2446.07 1444.09 2448.84C1447.29 2451.4 1451.56 2452.68 1456.89 2452.68C1461.8 2452.68 1466.28 2451.4 1470.33 2448.84C1474.6 2446.07 1477.69 2441.8 1479.61 2436.04L1488.89 2457.48C1486.12 2470.49 1480.25 2480.2 1471.29 2486.6C1462.33 2493 1450.28 2496.2 1435.13 2496.2ZM1704.79 2314.76C1718.23 2314.76 1730.39 2317.53 1741.27 2323.08C1752.15 2328.41 1760.68 2336.84 1766.87 2348.36C1773.27 2359.88 1776.47 2374.81 1776.47 2393.16V2493H1704.15V2405.64C1704.15 2394.76 1702.23 2387.08 1698.39 2382.6C1694.55 2377.91 1689.32 2375.56 1682.71 2375.56C1677.8 2375.56 1673.21 2376.73 1668.95 2379.08C1664.89 2381.21 1661.59 2384.84 1659.03 2389.96C1656.68 2395.08 1655.51 2402.01 1655.51 2410.76V2493H1583.19V2317.96H1651.99V2369.16L1638.23 2354.44C1645.05 2341.21 1654.23 2331.29 1665.75 2324.68C1677.48 2318.07 1690.49 2314.76 1704.79 2314.76ZM1903.48 2496.2C1883.64 2496.2 1866.04 2492.36 1850.68 2484.68C1835.53 2476.79 1823.59 2466.01 1814.84 2452.36C1806.09 2438.71 1801.72 2423.03 1801.72 2405.32C1801.72 2387.61 1806.09 2371.93 1814.84 2358.28C1823.59 2344.63 1835.53 2333.96 1850.68 2326.28C1866.04 2318.6 1883.64 2314.76 1903.48 2314.76C1923.32 2314.76 1940.92 2318.6 1956.28 2326.28C1971.64 2333.96 1983.59 2344.63 1992.12 2358.28C2000.87 2371.93 2005.24 2387.61 2005.24 2405.32C2005.24 2423.03 2000.87 2438.71 1992.12 2452.36C1983.59 2466.01 1971.64 2476.79 1956.28 2484.68C1940.92 2492.36 1923.32 2496.2 1903.48 2496.2ZM1903.48 2439.88C1908.81 2439.88 1913.61 2438.6 1917.88 2436.04C1922.15 2433.48 1925.56 2429.64 1928.12 2424.52C1930.68 2419.19 1931.96 2412.79 1931.96 2405.32C1931.96 2397.64 1930.68 2391.35 1928.12 2386.44C1925.56 2381.32 1922.15 2377.48 1917.88 2374.92C1913.61 2372.36 1908.81 2371.08 1903.48 2371.08C1898.15 2371.08 1893.35 2372.36 1889.08 2374.92C1884.81 2377.48 1881.4 2381.32 1878.84 2386.44C1876.28 2391.35 1875 2397.64 1875 2405.32C1875 2412.79 1876.28 2419.19 1878.84 2424.52C1881.4 2429.64 1884.81 2433.48 1889.08 2436.04C1893.35 2438.6 1898.15 2439.88 1903.48 2439.88ZM2072.79 2493L2002.39 2317.96H2076.63L2130.07 2460.04H2092.63L2149.59 2317.96H2218.07L2147.67 2493H2072.79Z" fill="#0A626F"/>
<path d="M1747.12 1336.03H2523.62V1542.73L2152.5 2066.85L1747.12 1542.73V1336.03Z" fill="#159696"/>
<rect x="1655.77" y="1301.78" width="970.622" height="216.963" fill="#159696"/>
<path d="M2044.02 1918.41H2226.72V2141.08H2044.02V1918.41Z" fill="#159696"/>
<path d="M1777.25 1253.83C1761.67 1294.94 1760.39 1339.59 1773.55 1372.67C1789.13 1411.69 1827.51 1443.01 1874.4 1454.89C1903.47 1462.28 1915.03 1463.56 1954.22 1464.04C1975.09 1464.2 1992.92 1464.85 1993.88 1465.33C1994.85 1465.97 1999.34 1473.68 2003.84 1482.51C2030.5 1534.38 2072.57 1579.83 2111.75 1598.94C2117.86 1601.99 2120.91 1604.4 2120.91 1606.33C2120.91 1607.93 2120.43 1609.22 2119.94 1609.22C2119.46 1609.22 2111.75 1605.52 2102.92 1600.87C2061.17 1579.51 2024.23 1541.45 1999.34 1494.23C1988.26 1473.36 1986.82 1472.39 1969.95 1474.32C1931.09 1478.98 1881.15 1472.39 1849.03 1458.58C1827.51 1449.43 1803.26 1433.05 1790.42 1419.08C1775.16 1402.54 1760.87 1379.09 1753.16 1357.89C1747.86 1343.6 1746.25 1343.12 1747.54 1356.29C1753.96 1424.54 1779.66 1468.38 1826.23 1491.5C1848.55 1502.59 1867.02 1506.44 1899.13 1506.44C1922.9 1506.44 1945.87 1503.39 1964.17 1497.77L1976.38 1493.91L1985.05 1506.28C2006.57 1537.11 2035.31 1566.02 2063.26 1585.13C2078.03 1595.24 2101.8 1607.29 2114.16 1610.98C2119.14 1612.43 2120.91 1613.71 2120.91 1616.12C2120.91 1619.98 2117.54 1619.33 2100.67 1612.27C2059.56 1595.08 2014.44 1559.27 1973.33 1510.94C1972.68 1510.29 1968.35 1510.78 1963.53 1512.06C1935.43 1519.77 1892.39 1521.86 1865.57 1517.04C1832.97 1511.1 1805.83 1498.25 1782.23 1477.21C1777.41 1473.04 1773.07 1469.83 1772.75 1470.31C1771.79 1471.11 1791.86 1507.4 1803.42 1525.71C1811.45 1538.56 1812.58 1539.68 1823.82 1545.3C1858.99 1563.13 1903.63 1559.59 1952.77 1535.02L1965.3 1528.76L1975.25 1537.59C1990.35 1550.76 2025.36 1576.62 2044.15 1588.34C2072.89 1606.17 2090.88 1614.52 2118.98 1623.03C2120.27 1623.35 2120.91 1627.36 2120.75 1636.03C2120.75 1645.67 2120.27 1647.76 2119.14 1645.19C2116.89 1640.85 2102.28 1632.02 2092 1628.97C2084.61 1626.88 2083.01 1626.88 2075.14 1629.29L2066.47 1632.02L2030.34 1623.83C2010.42 1619.33 1993.56 1615.64 1992.76 1615.64C1992.12 1615.64 1990.67 1618.69 1989.71 1622.38C1986.33 1634.43 1972.85 1647.44 1960.64 1650.17C1954.38 1651.45 1953.9 1654.18 1960 1654.18C1972.85 1654.18 2009.78 1650.65 2020.06 1648.56C2030.18 1646.47 2052.98 1639.73 2059.56 1637C2060.85 1636.52 2059.08 1639.73 2056.03 1644.06C2047.36 1656.11 2044.95 1663.17 2044.95 1675.86C2045.11 1684.53 2046.23 1690.15 2050.09 1700.11C2054.58 1711.99 2070.8 1738.17 2081.72 1751.66L2085.9 1756.8L2079.15 1760.97C2067.91 1768.04 2060.04 1777.35 2057.31 1787.15C2052.18 1804.49 2058.28 1821.03 2076.26 1839.18C2086.06 1848.81 2086.86 1850.1 2084.29 1851.54C2082.53 1852.51 2078.51 1857 2075.3 1861.82C2063.26 1879.17 2066.47 1898.92 2083.81 1915.78C2090.4 1922.2 2091.52 1923.97 2089.75 1925.58C2084.78 1929.59 2080.76 1941.47 2080.76 1952.23C2080.76 1961.07 2081.56 1964.44 2085.9 1972.47C2091.68 1983.39 2108.7 1998.96 2116.25 2000.57C2120.75 2001.37 2120.91 2001.86 2120.91 2010.53C2120.91 2018.4 2131.19 2059.83 2134.56 2065.29C2135.84 2067.38 2154.15 2067.38 2155.43 2065.29C2158.81 2059.83 2169.08 2018.4 2169.08 2010.53C2169.08 2001.86 2169.25 2001.37 2173.42 2000.57C2181.29 1998.96 2198.31 1983.39 2204.09 1972.63C2208.43 1964.44 2209.23 1961.07 2209.23 1952.23C2209.23 1941.47 2205.22 1929.59 2200.24 1925.58C2198.47 1923.97 2199.6 1922.2 2206.18 1915.78C2223.36 1899.08 2226.74 1879.17 2215.01 1862.3C2211.96 1857.81 2207.95 1853.15 2206.02 1852.03C2202.97 1850.1 2203.29 1849.62 2213.57 1839.18C2242.47 1810.27 2241.35 1780.24 2210.84 1760.97L2204.09 1756.8L2208.27 1751.66C2219.19 1738.17 2235.41 1711.99 2239.9 1700.11C2248.74 1677.15 2246.81 1660.77 2232.84 1642.62L2227.06 1635.07L2233.96 1638.12C2244.72 1642.62 2263.03 1647.44 2279.89 1650.01C2299 1652.9 2334.49 1654.98 2334.49 1653.06C2334.49 1652.41 2330.64 1650.33 2326.14 1648.72C2315.38 1645.03 2305.1 1634.75 2301.25 1623.67C2299.64 1619.33 2297.88 1615.64 2297.39 1615.64C2296.75 1615.64 2280.21 1619.33 2260.46 1623.83C2240.71 1628.33 2223.85 1632.02 2222.88 1632.02C2222.08 1632.02 2218.06 1630.74 2214.21 1629.29C2208.27 1627.2 2205.7 1627.04 2199.44 1628.49C2189.96 1630.74 2173.1 1640.53 2170.85 1645.19C2169.57 1647.76 2169.25 1645.67 2169.57 1636.03L2169.89 1623.35L2184.5 1618.69C2217.74 1608.09 2274.11 1572.92 2314.74 1537.43L2324.69 1528.76L2337.22 1535.02C2366.29 1549.48 2391.18 1556.22 2416.07 1556.22C2436.46 1556.22 2450.76 1553.17 2466.17 1545.3C2477.41 1539.68 2478.54 1538.56 2486.57 1525.71C2498.29 1506.92 2518.04 1471.11 2517.24 1470.31C2516.92 1469.83 2512.58 1473.04 2507.77 1477.21C2491.71 1491.34 2479.5 1498.89 2461.36 1506.44C2426.51 1520.73 2379.94 1523.78 2336.42 1514.31C2327.91 1512.54 2320.04 1510.94 2319.07 1510.78C2318.27 1510.61 2309.76 1518.97 2300.29 1529.24C2265.44 1567.3 2225.29 1597.33 2189.32 1612.27C2172.46 1619.33 2169.08 1619.98 2169.08 1616.12C2169.08 1613.71 2170.85 1612.43 2175.99 1610.98C2188.19 1607.29 2211.96 1595.24 2226.74 1585.13C2254.84 1566.02 2283.42 1537.11 2304.94 1506.28L2313.61 1493.91L2323.73 1497.13C2343.32 1503.23 2354.89 1504.99 2381.22 1505.96C2410.93 1506.92 2427.47 1505.32 2444.82 1499.37C2503.59 1479.46 2535.23 1433.05 2542.45 1356.29C2543.74 1343.12 2542.13 1343.6 2536.83 1357.89C2516.6 1412.98 2474.36 1451.2 2415.75 1467.1C2386.84 1474.96 2349.43 1477.85 2320.04 1474.32C2303.18 1472.39 2301.73 1473.36 2290.65 1494.23C2265.76 1541.45 2228.82 1579.51 2187.07 1600.87C2178.24 1605.52 2170.53 1609.22 2170.05 1609.22C2169.57 1609.22 2169.08 1607.93 2169.08 1606.33C2169.08 1604.4 2172.14 1601.99 2178.4 1598.94C2217.42 1579.83 2259.5 1534.38 2286.15 1482.51C2290.65 1473.68 2295.15 1465.97 2296.11 1465.33C2297.07 1464.85 2314.9 1464.2 2335.78 1464.04C2374.96 1463.56 2386.52 1462.28 2415.59 1454.89C2462.48 1443.01 2500.86 1411.69 2516.44 1372.67C2529.61 1339.59 2528.32 1294.94 2512.74 1253.83C2510.82 1248.86 2508.73 1244.68 2508.09 1244.68C2507.28 1244.68 2506.32 1253.83 2505.84 1265.07C2503.11 1324.33 2474.68 1370.74 2422.01 1401.9C2389.73 1420.85 2355.05 1431.77 2306.71 1438.19C2280.21 1441.56 2280.69 1441.24 2270.9 1469.5C2253.07 1521.53 2221.76 1564.09 2181.77 1590.91C2175.83 1594.76 2170.69 1597.98 2170.05 1597.98C2169.57 1597.98 2169.08 1584.81 2169.08 1568.59V1539.36L2174.87 1536.15C2182.9 1531.81 2192.53 1520.57 2195.42 1511.74C2203.61 1487.97 2192.69 1463.72 2169.25 1452.8C2158.49 1447.82 2131.51 1447.82 2120.75 1452.8C2097.3 1463.72 2086.38 1487.97 2094.57 1511.74C2097.46 1520.57 2107.1 1531.81 2115.13 1536.15L2120.91 1539.36V1568.59C2120.91 1584.81 2120.43 1597.98 2119.94 1597.98C2119.3 1597.98 2114.16 1594.76 2108.22 1590.91C2068.23 1564.09 2036.92 1521.53 2019.09 1469.5C2009.3 1441.24 2009.78 1441.56 1983.28 1438.19C1934.95 1431.77 1900.26 1420.85 1867.98 1401.9C1815.31 1370.74 1786.88 1324.33 1784.15 1265.07C1783.67 1253.83 1782.71 1244.68 1781.91 1244.68C1781.26 1244.68 1779.18 1248.86 1777.25 1253.83ZM2120.91 1698.66L2120.75 1746.52L2114.48 1739.29C2104.85 1728.21 2091.36 1709.26 2084.78 1697.06C2080.28 1688.71 2078.67 1684.21 2078.51 1677.79C2078.35 1669.76 2078.51 1669.28 2083.97 1666.71C2087.67 1664.78 2093.29 1663.82 2100.67 1663.82C2109.99 1663.82 2112.56 1663.17 2115.61 1660.28C2117.7 1658.36 2119.3 1655.47 2119.3 1653.86C2119.3 1652.25 2119.62 1650.97 2120.1 1650.97C2120.59 1650.97 2120.91 1672.49 2120.91 1698.66ZM2174.38 1660.12C2177.11 1663.33 2179.36 1663.82 2189 1663.82C2196.71 1663.82 2202.33 1664.78 2206.02 1666.71C2211.32 1669.28 2211.64 1669.92 2211.48 1676.82C2211.48 1689.19 2195.74 1716.33 2175.51 1739.29L2169.25 1746.52V1698.34C2169.41 1671.85 2169.73 1651.61 2170.21 1653.38C2170.69 1655.14 2172.46 1658.2 2174.38 1660.12ZM2120.91 1806.9V1832.6L2115.93 1829.7C2108.06 1825.05 2091.04 1807.86 2089.11 1802.4C2086.38 1794.37 2092.48 1788.43 2108.86 1783.29C2121.55 1779.28 2120.91 1777.99 2120.91 1806.9ZM2188.84 1786.18C2199.44 1790.84 2203.13 1795.66 2200.88 1802.24C2198.95 1807.7 2182.09 1825.05 2174.06 1829.7L2169.08 1832.6V1806.58V1780.72L2175.19 1781.85C2178.4 1782.49 2184.66 1784.42 2188.84 1786.18ZM2120.59 1894.42L2120.1 1903.41L2112.56 1897.47C2108.22 1894.26 2103.72 1889.6 2102.44 1886.87C2100.03 1882.22 2100.03 1882.06 2105.01 1877.4C2107.9 1874.83 2112.4 1871.62 2115.13 1870.33L2120.1 1867.92L2120.59 1876.6C2120.91 1881.41 2120.91 1889.44 2120.59 1894.42ZM2180.33 1873.87C2189.32 1880.29 2190.12 1881.9 2187.55 1887.03C2185.46 1890.89 2177.27 1898.6 2171.17 1902.13C2169.57 1903.09 2169.08 1899.24 2169.08 1885.59C2169.08 1865.68 2169.08 1865.84 2180.33 1873.87ZM2120.91 1953.04V1964.44L2116.89 1959.62C2114.64 1956.89 2112.88 1953.36 2112.88 1951.75C2112.88 1949.02 2118.18 1941.63 2120.1 1941.63C2120.59 1941.63 2120.91 1946.77 2120.91 1953.04ZM2173.9 1945.17C2178.24 1949.82 2177.92 1953.84 2173.1 1959.62L2169.08 1964.44V1953.04C2169.08 1946.77 2169.41 1941.63 2169.89 1941.63C2170.21 1941.63 2171.98 1943.24 2173.9 1945.17Z" fill="white"/>
<path d="M1953.74 1549.8C1938 1557.83 1911.98 1566.5 1893.03 1569.87C1881.15 1572.12 1872.8 1572.6 1855.62 1571.8C1838.91 1571.16 1833.61 1571.48 1834.74 1572.76C1835.54 1573.89 1843.09 1583.84 1851.76 1595.08L1867.34 1615.64H1877.94C1903.63 1615.64 1932.54 1601.51 1956.3 1577.26C1960.64 1572.76 1964.82 1569.07 1965.62 1569.07C1966.42 1569.07 1980.87 1575.49 1997.74 1583.36C2031.62 1599.1 2066.15 1613.87 2078.03 1617.89C2093.77 1623.19 2090.56 1620.14 2070 1610.18C2033.23 1592.35 1997.9 1570.19 1977.66 1552.05C1972.36 1547.23 1967.55 1543.37 1966.9 1543.37C1966.42 1543.54 1960.48 1546.27 1953.74 1549.8Z" fill="white"/>
<path d="M2314.42 1550.76C2294.02 1569.07 2261.42 1589.79 2222.88 1608.73C2176.95 1631.54 2220.15 1616.76 2279.09 1589.62C2292.42 1583.52 2307.99 1576.3 2313.94 1573.57L2324.69 1568.75L2336.42 1579.51C2363.08 1604.24 2387.32 1615.64 2413.18 1615.64H2422.65L2432.13 1603.92C2440.8 1593.16 2452.84 1577.1 2455.41 1572.76C2456.22 1571.48 2450.92 1571.16 2434.54 1571.8C2401.3 1573.08 2371.43 1566.5 2338.18 1550.44C2329.99 1546.59 2323.25 1543.38 2322.93 1543.38C2322.61 1543.54 2318.91 1546.75 2314.42 1550.76Z" fill="white"/>
<path d="M1961.76 1586.09C1941.69 1606.81 1907 1625.27 1888.21 1625.27C1885 1625.27 1881.31 1626.08 1880.02 1626.88C1876.33 1629.13 1888.38 1640.69 1897.53 1643.74C1916.16 1649.84 1943.78 1649.84 1955.66 1643.58C1966.26 1638.12 1975.74 1625.44 1979.43 1611.14C1980.55 1607.45 1982.16 1604.4 1983.12 1604.4C1984.09 1604.4 2004 1608.73 2027.45 1614.19C2050.73 1619.49 2070.16 1623.67 2070.48 1623.35C2070.8 1623.03 2048.48 1613.07 2020.86 1601.19C1993.4 1589.46 1970.28 1579.51 1969.79 1579.35C1969.31 1579.03 1965.62 1582.08 1961.76 1586.09Z" fill="white"/>
<path d="M2277.48 1597.81C2253.71 1608.09 2230.91 1617.73 2227.06 1619.17C2223.04 1620.78 2220.31 1622.38 2220.79 1622.87C2221.11 1623.35 2240.55 1619.33 2263.83 1614.03C2287.12 1608.73 2307.19 1604.72 2308.31 1605.04C2309.44 1605.52 2310.4 1607.13 2310.4 1608.73C2310.4 1613.71 2318.43 1628.97 2323.73 1634.59C2334.81 1646.15 2351.67 1650.65 2372.71 1647.76C2392.78 1645.03 2400.81 1641.82 2407.4 1633.95L2413.18 1627.04L2407.24 1626.08C2376.4 1621.42 2354.56 1610.66 2330.8 1588.5L2320.84 1579.19L2277.48 1597.81Z" fill="white"/>
</svg>
