<svg width="73" height="73" viewBox="0 0 73 73" fill="none" xmlns="http://www.w3.org/2000/svg">
<path d="M32.0516 2.49506C20.2889 4.16323 10.5365 11.2636 5.53203 21.7859C3.32207 26.4197 2.28125 31.1533 2.28125 36.5C2.28125 40.649 2.7375 43.5291 3.99219 47.3644C7.74199 58.7707 17.3375 67.3966 29.1715 69.9915C32.5363 70.733 37.4553 70.9468 40.8771 70.5048C52.7824 68.9365 62.9197 61.4083 67.7959 50.5154C69.1646 47.4499 70.0486 44.2705 70.5049 40.8771C70.79 38.6671 70.79 34.3328 70.5049 32.1228C68.5373 17.1806 57.2309 5.36089 42.3457 2.70893C40.0645 2.29546 34.2615 2.1814 32.0516 2.49506ZM40.0645 8.14116C49.6172 9.3103 58.1434 15.4839 62.2924 24.2382C65.1154 30.2123 65.8141 37.0417 64.2314 43.3437C61.6508 53.6236 53.6236 61.6507 43.3438 64.2314C40.0502 65.0583 35.9297 65.2865 32.6076 64.816C23.0834 63.4757 14.7996 57.4019 10.7076 48.7617C8.82559 44.7695 7.95586 40.9341 7.95586 36.5C7.95586 28.8292 10.893 21.7574 16.3252 16.3251C21.3725 11.2636 27.6602 8.46909 35.1455 7.92729C36.1293 7.856 38.5959 7.97007 40.0645 8.14116Z" fill="#04607A"/>
<path d="M32.7502 12.7606C29.0574 13.3594 25.6213 14.771 22.4846 16.9667C20.8022 18.1501 18.1645 20.7877 16.9383 22.5272C15.1276 25.0793 13.6448 28.4727 12.9461 31.695C12.661 32.9639 12.6324 33.5627 12.6324 36.4999C12.6324 39.437 12.661 40.0358 12.9461 41.3047C13.659 44.5555 15.1133 47.8918 16.9383 50.4725C18.1645 52.212 20.7879 54.8354 22.5274 56.0616C25.0795 57.8723 28.4729 59.3551 31.6951 60.0538C32.9641 60.3389 33.5629 60.3674 36.5 60.3674C39.4371 60.3674 40.036 60.3389 41.3049 60.0538C44.5272 59.3551 47.9205 57.8723 50.4727 56.0616C52.1979 54.8354 54.8356 52.212 56.076 50.4725C57.8582 47.9631 59.3553 44.527 60.0539 41.3047C60.3391 40.0358 60.3676 39.437 60.3676 36.4999C60.3676 33.577 60.3391 32.9639 60.0539 31.7092C57.9723 22.1708 50.8434 15.0133 41.3905 12.9602C39.5512 12.561 34.6608 12.4469 32.7502 12.7606ZM37.6406 18.7204C37.9115 18.8915 38.2537 19.2622 38.4106 19.5331C38.6957 20.0178 38.71 20.2602 38.7528 27.7741L38.7955 35.5018L43.0586 38.7098C45.9957 40.9055 47.4072 42.0604 47.5641 42.3741C48.277 43.7571 47.2219 45.4823 45.6678 45.4823C45.3256 45.4823 44.8979 45.411 44.7268 45.3112C44.5557 45.2256 42.2602 43.529 39.6082 41.5471C36.3574 39.109 34.7178 37.7831 34.5467 37.4694C34.3043 37.0274 34.2901 36.3858 34.2901 28.5155C34.2901 20.2174 34.2901 20.0178 34.5895 19.5331C35.0172 18.8059 35.7016 18.3924 36.5 18.3924C36.9563 18.3924 37.327 18.4922 37.6406 18.7204Z" fill="#1093A5"/>
</svg>
