<svg width="73" height="73" viewBox="0 0 73 73" fill="none" xmlns="http://www.w3.org/2000/svg">
<g clip-path="url(#clip0_27_18)">
<path d="M21.4153 1.22612C17.8366 2.0103 14.5715 4.54819 12.9034 7.84175C11.8768 9.86636 11.4633 11.9052 11.5916 14.3005C11.834 18.9771 14.486 22.9408 18.6778 24.9369C20.6311 25.8636 21.8288 26.1345 24.167 26.1345C26.5053 26.1345 27.703 25.8636 29.6563 24.9369C33.3918 23.1546 36.0153 19.633 36.6569 15.5267C36.8565 14.215 36.7424 11.6486 36.4288 10.4082C35.4307 6.5728 32.3795 3.15093 28.7438 1.78218C28.202 1.58257 27.318 1.32593 26.7762 1.21186C25.55 0.940966 22.6414 0.955223 21.4153 1.22612ZM24.9512 6.92925C25.6926 7.3855 25.8067 7.7562 25.8067 9.96616V11.9765H27.817C30.0983 11.9765 30.4832 12.1048 30.8825 12.9603C31.0963 13.4023 31.0963 13.5306 30.9252 14.0296C30.5688 15.0419 30.2123 15.1845 27.8598 15.2273L25.8067 15.2701V17.1949C25.8067 19.248 25.6926 19.7328 25.0653 20.1605C24.6518 20.4457 23.6823 20.4457 23.2688 20.1605C22.6414 19.7328 22.5274 19.248 22.5274 17.1949V15.2701L20.4743 15.2273C18.1217 15.1845 17.7653 15.0419 17.4088 14.0296C17.2377 13.5306 17.2377 13.4023 17.4516 12.9603C17.8508 12.1048 18.2358 11.9765 20.517 11.9765H22.5274V10.0375C22.5274 7.89878 22.67 7.37124 23.3543 6.95776C23.8391 6.64409 24.4379 6.62983 24.9512 6.92925Z" fill="#1093A5"/>
<path d="M4.51973 20.1177C2.75176 20.5312 1.25469 21.8857 0.58457 23.7107C0.285156 24.5234 0.285156 24.6089 0.285156 37.3554V50.1589L0.655859 50.6009C1.09785 51.1284 1.75371 51.3281 3.1082 51.3281H4.13477V55.8478V60.3818L3.35059 60.724C1.89629 61.3513 0.741406 62.663 0.213867 64.2741C-0.156837 65.4433 -0.0427741 67.5392 0.470507 68.5943C1.21191 70.1341 2.50937 71.2747 4.12051 71.788C5.33242 72.1872 7.21445 72.0447 8.44062 71.4743C9.75234 70.8613 10.5936 70.0486 11.2352 68.7511C11.7484 67.696 11.7627 67.6247 11.7627 66.0991C11.7627 64.2599 11.5061 63.5042 10.451 62.2068L9.83789 61.4511H36.5143H63.1906L62.6631 62.0357C62.3779 62.3636 61.9359 63.048 61.6936 63.5755C60.8381 65.4005 61.0377 67.8671 62.1783 69.521C63.433 71.346 65.6857 72.3013 68.024 71.9734C69.8633 71.731 71.6312 70.4335 72.4582 68.7511C72.9145 67.8386 72.9287 67.7388 72.9287 66.0849C72.9287 64.488 72.9002 64.3169 72.5152 63.5185C71.9592 62.3921 70.733 61.1802 69.6922 60.7382L68.8652 60.3818V55.8478V51.3281H69.9061C71.2463 51.3281 71.9021 51.1284 72.3584 50.6009L72.7291 50.1589L72.6863 39.9361L72.6435 29.7275L72.173 28.7722C71.5885 27.5745 70.3338 26.3769 69.2359 25.9634C66.7978 25.0509 64.1459 25.7495 62.6203 27.6886L61.9787 28.5156H44.5699C33.6484 28.5156 26.7904 28.5726 26.1631 28.6581C24.8086 28.8577 23.8248 29.3425 22.7982 30.312C21.8715 31.2103 21.1729 32.4365 20.9875 33.5058L20.8734 34.1474L16.2967 34.1902L11.7199 34.2187L11.6629 29.3425C11.6059 24.6517 11.5916 24.4236 11.2779 23.6251C10.8787 22.6128 10.0518 21.5435 9.2248 20.9732C7.9416 20.0892 6.07383 19.747 4.51973 20.1177ZM7.00059 23.8532C7.27148 24.0243 7.62793 24.4521 7.81328 24.8085L8.12695 25.4359V36.5997V47.7636H5.98828H3.84961V36.3716V24.9939L4.17754 24.5091C4.81914 23.5538 6.10234 23.2544 7.00059 23.8532ZM68.0098 29.4138C69.2074 30.0411 69.1504 29.5849 69.1504 39.2374V47.7636H67.0117H64.8588L64.9016 39.2374C64.9443 30.9964 64.9586 30.7113 65.2295 30.2265C65.5289 29.7132 66.5412 29.0859 67.0973 29.0859C67.2541 29.0859 67.6676 29.2284 68.0098 29.4138ZM20.8164 39.9218V42.0605H16.2539H11.6914V39.9218V37.7831H16.2539H20.8164V39.9218ZM61.3086 46.6943V47.7636H36.5H11.6914V46.6943V45.6249H36.5H61.3086V46.6943ZM65.3008 54.6073V57.8866H36.5H7.69922V54.6073V51.3281H36.5H65.3008V54.6073Z" fill="#04607A"/>
</g>
<defs>
<clipPath id="clip0_27_18">
<rect width="73" height="73" fill="white"/>
</clipPath>
</defs>
</svg>
