<svg width="72" height="72" viewBox="0 0 72 72" fill="none" xmlns="http://www.w3.org/2000/svg">
<path d="M29.6015 0.267189C29.1375 0.407814 28.4765 0.660942 28.125 0.829689C26.7328 1.54688 24.3703 3.10781 23.8078 3.68438C23.1047 4.41563 22.5422 5.48438 22.3593 6.48281C22.275 6.87656 22.2187 9.50625 22.2187 12.3047V17.3953L21.6422 17.4938C20.2781 17.7188 18.8718 18.8156 18.1828 20.2219C17.8312 20.925 17.789 21.1781 17.789 22.3594C17.8031 23.5406 17.8453 23.7938 18.1968 24.4969C18.9 25.8891 20.3203 26.9719 21.7547 27.2109C22.3453 27.3094 22.3453 27.3094 22.5 28.0969C22.8515 29.8828 23.5406 31.5563 24.5812 33.1875C25.1578 34.1016 26.8031 35.8312 27.7453 36.5203L28.4062 37.0125V39.375C28.4062 41.4141 28.3781 41.7797 28.1672 42.0328C27.9984 42.2297 25.5656 43.2 20.9531 44.9297C17.1281 46.3641 13.5984 47.7563 13.0922 48.0375C9.99841 49.7391 7.90309 52.5516 7.08747 56.0672C6.86247 56.9953 6.82028 57.825 6.82028 61.425V65.7L7.15778 65.9672C7.56559 66.2906 8.21247 66.2203 8.64841 65.7984C8.91559 65.5453 8.92966 65.2781 9.01403 61.0594C9.09841 56.0953 9.12653 55.9688 10.1531 53.9719C10.8281 52.65 12.0375 51.3 13.3312 50.4281C14.1328 49.8797 17.5078 48.4313 19.2375 47.8969L19.5468 47.7984V51.2156V54.6328L18.9422 54.8859C18.014 55.2656 17.3531 55.8844 16.889 56.8406C16.1156 58.3875 16.3547 60.1453 17.5218 61.4391C18.5484 62.5922 20.025 63.0422 21.5156 62.6625C23.4843 62.1562 24.6937 60.6234 24.6656 58.6406C24.6515 56.9813 23.6672 55.5047 22.1343 54.8297L21.5156 54.5484V50.8641C21.5156 47.0672 21.5437 46.8281 22.0781 46.8281C22.2047 46.8281 22.9781 47.3203 23.7937 47.9391C25.8328 49.4438 27.1968 50.2734 28.7015 50.9344C33.089 52.8188 38.25 52.9172 42.6937 51.1734C44.4093 50.5125 45.9562 49.5984 48.0937 48.0094C48.9797 47.3625 49.7812 46.8281 49.8656 46.8281C49.964 46.8281 50.3297 46.9547 50.6812 47.1094L51.3281 47.3766V50.5406C51.3281 53.9438 51.3422 53.8594 50.5687 53.8594C50.0203 53.8594 48.5718 54.6891 47.9531 55.35C47.6297 55.7016 47.1937 56.3484 46.9968 56.7844L46.6172 57.5859L46.575 62.5359L46.5328 67.5L46.8843 67.8516C47.2078 68.175 47.3484 68.2031 48.375 68.2031C49.4015 68.2031 49.5422 68.1609 49.8515 67.8516C50.5406 67.1766 50.1468 66.3188 49.064 66.15L48.4875 66.0516L48.5437 62.0297L48.5859 58.0078L48.9797 57.3328C49.1906 56.9672 49.6406 56.4891 49.95 56.2781C50.5125 55.9125 50.6109 55.8984 52.2422 55.8984C53.8734 55.8984 53.9718 55.9125 54.5343 56.2781C54.8437 56.4891 55.2937 56.9672 55.5047 57.3328L55.8984 58.0078L55.9406 62.0297L55.9968 66.0516L55.4203 66.15C54.3375 66.3188 53.9437 67.1766 54.6328 67.8516C54.9422 68.1609 55.0828 68.2031 56.1093 68.2031C57.1359 68.2031 57.2765 68.175 57.6 67.8516L57.9515 67.5L57.9093 62.5359L57.8672 57.5859L57.4875 56.7844C56.7984 55.3078 55.364 54.1266 53.9718 53.8875L53.3672 53.775L53.325 50.9344C53.3109 49.3734 53.3109 48.0938 53.339 48.0938C53.3672 48.0938 54.3515 48.4734 55.5468 48.9234C56.9109 49.4578 58.05 50.0063 58.6687 50.4141C60.6375 51.7641 62.1422 53.9016 62.7187 56.1938C62.9718 57.1922 63 57.7688 63 63.5906V69.8906H36.0281H9.05622L8.91559 69.2859C8.81716 68.7938 8.70466 68.6531 8.25466 68.4281C7.72028 68.175 7.70622 68.175 7.34059 68.4422C6.52497 69.0469 6.58122 70.4109 7.45309 71.3531L8.00153 71.9297H35.9859H63.9703L64.4765 71.4375C64.7578 71.1703 65.039 70.7063 65.1234 70.3969C65.2218 70.0312 65.25 67.6969 65.2218 63.4359C65.1656 57.8672 65.1375 56.8828 64.9125 55.9828C64.0406 52.425 61.7203 49.4297 58.6406 47.8828C58.2187 47.6719 54.7734 46.3219 50.9765 44.9016C46.4062 43.2 44.0015 42.2297 43.8468 42.0328C43.6218 41.7797 43.5937 41.4141 43.5937 39.375V37.0125L44.2687 36.5203C45.1968 35.8312 46.8422 34.1016 47.4187 33.1875C48.4593 31.5563 49.1484 29.8828 49.5 28.1109L49.6547 27.3234L50.5406 27.0844C52.5937 26.5219 54.1406 24.4969 54.1406 22.3453C54.1406 21.9797 54.014 21.2625 53.8453 20.7281C53.5922 19.9266 53.4093 19.6453 52.6922 18.9141C52.0593 18.2812 51.5953 17.9578 51.0047 17.7469C50.5547 17.5781 50.1047 17.4375 49.9922 17.4375C49.8093 17.4375 49.7812 16.7203 49.7812 12.3188C49.7812 9.50625 49.725 6.87656 49.6406 6.48281C49.4578 5.48438 48.8953 4.41563 48.1922 3.68438C47.6156 3.07969 45.2109 1.50469 43.7906 0.801567C42.2859 0.0421906 41.8359 0 35.9156 0.014061C31.1484 0.014061 30.3328 0.0562515 29.6015 0.267189ZM41.9203 2.39062C42.7078 2.62969 45.0984 3.97969 46.364 4.89375C46.6031 5.0625 46.9687 5.52657 47.1656 5.93438L47.5312 6.66563V12.1219V17.5781H40.7812C34.214 17.5781 34.0172 17.5922 33.75 17.8594C33.3703 18.2391 33.3984 18.7875 33.8203 19.1953L34.1578 19.5469H40.8515H47.5312V23.3016C47.5312 26.5641 47.489 27.225 47.25 28.2234C46.2656 32.3297 43.1578 35.5359 38.9953 36.7313C37.4203 37.1953 34.5797 37.1813 32.9906 36.7313C28.814 35.5359 25.7343 32.3438 24.75 28.2234C24.5109 27.225 24.4687 26.5641 24.4687 23.3016V19.5469H27.4781C30.3047 19.5469 30.5015 19.5328 30.8531 19.2516C31.289 18.9141 31.3453 18.2391 30.9797 17.8313C30.7687 17.6063 30.4734 17.5781 27.6047 17.5781H24.4687V12.1219C24.4687 5.20312 24.3281 5.625 27.5203 3.68438C30.1359 2.09531 29.9672 2.12344 35.9437 2.12344C40.6265 2.10938 41.1047 2.1375 41.9203 2.39062ZM22.3593 22.3734V25.1859L22.05 25.0875C21.1218 24.8063 20.4047 24.1734 20.0531 23.3156C19.6734 22.4156 19.8281 21.4594 20.475 20.5875C20.7843 20.1656 21.8109 19.5469 22.1906 19.5469C22.3172 19.5469 22.3593 20.2078 22.3593 22.3734ZM50.7797 20.0531C51.7078 20.6859 52.1859 21.9656 51.8906 23.0484C51.7218 23.6953 51.0609 24.525 50.4703 24.8344C49.6265 25.2563 49.6406 25.2984 49.6406 22.275V19.5328L49.964 19.6172C50.1328 19.6734 50.4984 19.8703 50.7797 20.0531ZM31.5422 38.3906C34.2562 39.3469 37.6593 39.3469 40.4859 38.3906C40.95 38.2359 41.3718 38.1094 41.414 38.1094C41.4562 38.1094 41.4843 38.9672 41.4843 40.0219C41.4843 43.3406 41.8078 43.8047 45.014 44.9719C47.3906 45.8438 47.5593 45.9281 47.25 46.125C47.1375 46.1953 46.4765 46.6734 45.7734 47.1797C42.7781 49.3453 39.6984 50.3438 36 50.3438C33.3843 50.3438 31.1625 49.8656 28.9968 48.8391C27.9562 48.3469 25.9031 47.025 25.0453 46.3078L24.5672 45.9L26.8031 45.0563C30.2203 43.7906 30.5156 43.3828 30.5156 40.0219C30.5156 38.9672 30.5718 38.1094 30.6281 38.1094C30.6843 38.1094 31.1062 38.2359 31.5422 38.3906ZM21.5859 56.8547C22.964 57.6281 22.9922 59.6391 21.6281 60.4688C20.6578 61.0594 19.3218 60.6797 18.7453 59.6813C18.2531 58.8375 18.3656 57.9797 19.0265 57.2484C19.7156 56.5031 20.7 56.3484 21.5859 56.8547Z" fill="#151515"/>
<path d="M34.1578 4.5422C33.5109 4.89376 32.9062 5.72345 32.9062 6.28595C32.9062 6.51095 32.7938 6.60939 32.4562 6.6797C31.7531 6.82033 31.0078 7.36876 30.7547 7.9172C30.5719 8.28283 30.5156 8.80314 30.5156 9.98439C30.5156 11.3485 30.5578 11.6438 30.825 12.1219C31.1625 12.7266 31.7391 13.1344 32.4562 13.2891C32.7938 13.3594 32.9062 13.4578 32.9062 13.6688C32.9062 14.2453 33.5812 15.1453 34.2422 15.4688C34.7906 15.736 35.0578 15.7641 36.3937 15.7219C37.7437 15.6797 37.9828 15.6375 38.4328 15.3281C38.9812 14.9625 39.5156 14.1328 39.5156 13.6688C39.5156 13.4578 39.6562 13.3594 40.1203 13.2328C40.8094 13.05 41.2031 12.7406 41.6109 12.0797C41.8641 11.6719 41.9062 11.3766 41.9062 9.99845C41.9062 8.62033 41.8641 8.33908 41.5969 7.84689C41.2594 7.2422 40.6828 6.83439 39.9797 6.6797C39.6281 6.60939 39.5156 6.51095 39.5156 6.30001C39.5156 5.73751 38.8406 4.82345 38.2078 4.51408C37.2937 4.06408 35.0297 4.0922 34.1578 4.5422ZM37.2797 6.32814C37.4906 6.4547 37.5469 6.63752 37.5469 7.2422C37.5469 8.3672 37.8562 8.60626 39.4453 8.74689L39.8672 8.78908V9.98439V11.1797L39.0938 11.2641C37.7578 11.4047 37.5891 11.5875 37.5187 12.9375L37.4766 13.5703H36.2109H34.9453L34.9031 12.9375C34.8328 11.5875 34.6641 11.4047 33.3281 11.2641L32.5547 11.1797V9.98439V8.78908L32.9766 8.74689C34.5234 8.62033 34.875 8.33908 34.875 7.22814C34.875 6.66564 34.9313 6.44064 35.1281 6.3422C35.4375 6.14533 36.9281 6.14533 37.2797 6.32814Z" fill="#151515"/>
<path d="M31.1907 18.9844C31.0641 19.2234 30.7829 19.4766 30.586 19.5469C30.375 19.6313 28.9125 19.6875 27.3235 19.6875H24.4407L24.511 23.5125C24.5813 27.8156 24.6657 28.3078 25.6219 30.375C27.4922 34.4391 31.4579 36.9844 35.9016 36.9844C39.0516 36.9844 41.6672 35.9438 43.9313 33.7641C45.5344 32.2172 46.5329 30.5156 47.1235 28.3359C47.3907 27.3516 47.4329 26.7328 47.5032 23.4422L47.5594 19.6875H40.9782C33.8766 19.6875 33.8485 19.6875 33.4969 18.9422C33.3282 18.5906 33.2579 18.5625 32.3719 18.5625C31.4719 18.5625 31.4157 18.5766 31.1907 18.9844Z" fill="white"/>
<path d="M21.3328 19.9828C20.3485 20.5031 19.8 21.7687 20.025 22.9922C20.1375 23.5969 20.9813 24.5812 21.6141 24.8484C21.8672 24.9469 22.1063 25.0312 22.1485 25.0312C22.1907 25.0312 22.2188 23.8219 22.2188 22.3594C22.2188 19.4203 22.2469 19.5047 21.3328 19.9828Z" fill="white"/>
<path d="M49.7812 22.3594V25.0312L50.3156 24.7641C52.2422 23.7797 52.425 21.2203 50.6531 20.0953C50.3016 19.8703 49.95 19.6875 49.8937 19.6875C49.8375 19.6875 49.7812 20.8969 49.7812 22.3594Z" fill="white"/>
<path d="M30.6282 40.3171C30.586 42.103 30.5298 42.4827 30.2626 42.9749C29.8548 43.7624 29.3063 44.1984 28.1673 44.6343C27.647 44.8312 26.6485 45.2109 25.9454 45.464L24.6938 45.9421L25.861 46.7999C28.6454 48.8812 31.1626 49.8655 34.4673 50.2171C38.4188 50.6249 42.4407 49.4859 45.886 46.9546L47.2782 45.9421L45.1407 45.1405C42.8345 44.2546 42.4267 44.0296 41.9485 43.3124C41.4563 42.6093 41.3438 41.9905 41.3438 40.0359C41.3438 39.0515 41.3157 38.2499 41.3017 38.2499C41.2735 38.2499 40.8798 38.3765 40.4438 38.5312C37.7438 39.4593 34.0313 39.4593 31.5845 38.5171C31.1907 38.3765 30.8251 38.2499 30.7829 38.2499C30.7267 38.2499 30.6563 39.178 30.6282 40.3171Z" fill="white"/>
<path d="M49.6406 46.9687C49.4296 47.0952 49.514 47.1515 50.4562 47.5031C51.089 47.7421 51.2015 47.7562 51.1593 47.5734C51.1031 47.3202 49.8796 46.8281 49.6406 46.9687Z" fill="#04607A"/>
<path d="M53.4375 48.4453C53.4375 48.5438 53.8594 48.8672 54.3656 49.1484C55.3781 49.725 56.9812 51.1453 57.7125 52.1578C58.4297 53.1141 59.175 54.7031 59.5125 55.9406C59.7937 56.9531 59.8219 57.4453 59.8781 63.3797L59.9344 69.75L34.425 69.7922L8.92969 69.8203L35.9719 69.8625L63 69.8906V64.0828C63 57.9656 62.9156 56.9391 62.3812 55.3781C61.875 53.9156 61.2281 52.9312 59.9766 51.6797C58.5422 50.2313 57.7125 49.7953 53.9719 48.4312C53.5219 48.2766 53.4375 48.2766 53.4375 48.4453Z" fill="#04607A"/>
<path d="M21.7547 47.0672C21.6984 47.1094 21.6563 48.8109 21.6563 50.85V54.5344L22.1484 54.7031C22.8656 54.9422 24.0328 56.0672 24.4125 56.8828C24.9328 57.9656 24.8906 59.4422 24.3141 60.5813C23.5828 62.0438 22.2891 62.8594 20.6578 62.8594C19.3078 62.8594 18.4922 62.5359 17.5641 61.6078C16.9734 61.0031 16.7344 60.6375 16.5375 59.9906C15.8906 57.9516 16.7484 55.8844 18.6328 54.9L19.4062 54.4922V51.2156C19.4062 49.4297 19.3922 47.9531 19.3641 47.9531C19.0969 47.9531 14.4281 49.8656 13.8516 50.2172C12.1219 51.2578 10.5609 53.0578 9.82969 54.8438C9.16875 56.4891 9.1125 56.9672 9.04219 61.3828C8.97188 65.4188 8.95781 65.6156 8.67656 65.9109C8.52188 66.0938 8.26875 66.2344 8.12813 66.2344C7.90313 66.2344 7.875 66.3609 7.875 67.2188C7.875 68.1469 7.88906 68.2031 8.22656 68.2875C8.67656 68.4 9 68.85 9 69.3563V69.75H34.4672H59.9344L59.8781 63.3797C59.8219 57.4453 59.7938 56.9531 59.5125 55.9406C59.175 54.7031 58.4156 53.1141 57.7125 52.1438C56.9813 51.1594 55.2656 49.6266 54.2953 49.1063L53.4375 48.6422V51.1734C53.4375 53.6063 53.4516 53.7188 53.7188 53.7188C53.8594 53.7188 54.3516 53.8594 54.8016 54.0281C55.9125 54.4359 57.2063 55.7156 57.6703 56.8828C58.0078 57.7125 58.0078 57.7688 58.0078 62.6766V67.6266L57.6844 67.95C57.4172 68.2172 57.1922 68.2734 56.2781 68.3156C55.0547 68.3578 54.5906 68.1891 54.3094 67.5844C54.1547 67.275 54.1547 67.1203 54.2812 66.7828C54.4922 66.2906 54.8016 66.0938 55.4062 66.0938H55.8422L55.8 62.0438L55.7578 58.0078L55.3641 57.3469C55.1109 56.9109 54.7453 56.5453 54.3094 56.2922C53.7047 55.9266 53.5219 55.8984 52.2422 55.8984C50.9625 55.8984 50.7797 55.9266 50.175 56.2922C49.7391 56.5453 49.3734 56.9109 49.1203 57.3469L48.7266 58.0078L48.6844 62.0578L48.6422 66.0938H49.0781C49.6828 66.0938 49.9922 66.2906 50.2031 66.7828C50.3297 67.1203 50.3297 67.275 50.175 67.5844C49.8938 68.1891 49.4297 68.3578 48.1922 68.3156C47.1656 68.2734 47.0531 68.2313 46.7297 67.8656L46.3922 67.4719L46.4344 62.5922C46.4766 57.8391 46.4906 57.7125 46.8141 56.8828C47.4469 55.3078 49.4578 53.7188 50.85 53.7188H51.1875L51.1594 50.7375L51.1172 47.7563L50.3016 47.4469L49.4859 47.1234L47.8547 48.3188C45.8438 49.7953 44.7188 50.4563 43.1016 51.1172C38.6156 52.9734 33.4969 52.9875 28.9547 51.1594C27.3938 50.5266 26.1984 49.8094 24.0469 48.2484C22.4016 47.0531 21.9797 46.8281 21.7547 47.0672Z" fill="#1093A5"/>
<path d="M41.1328 3.00938C43.0172 4.14844 43.3406 4.45781 43.9172 5.625L44.3672 6.53906L44.4094 11.9813L44.4516 17.4375H45.9984H47.5312V12.3328C47.5312 6.51094 47.475 6.13125 46.5609 5.23125C45.8859 4.57031 42.8906 2.77031 41.9766 2.48906C41.5969 2.3625 40.8937 2.22188 40.4297 2.16563L39.5859 2.08125L41.1328 3.00938Z" fill="#04607A"/>
<path d="M30.0093 2.50313C29.1374 2.8125 26.2687 4.51406 25.6218 5.11875C25.3546 5.35781 25.0171 5.80781 24.8483 6.11719C24.553 6.66563 24.539 6.84844 24.4968 12.0516L24.4546 17.4375H27.6046C30.7124 17.4375 30.7546 17.4375 31.0499 17.7609C31.2187 17.9438 31.3593 18.1688 31.3593 18.2531C31.3593 18.3656 31.6827 18.4219 32.3437 18.4219C32.9343 18.4219 33.328 18.3656 33.328 18.2812C33.328 18.1969 33.4827 17.9719 33.6796 17.7891L34.0171 17.4375H39.164H44.3108L44.2687 11.8406L44.2265 6.25781L43.8468 5.55469C43.3546 4.62656 42.8202 4.13438 41.1608 3.10781L39.7827 2.25H35.2546C31.289 2.26406 30.6421 2.29219 30.0093 2.50313ZM38.5593 4.58438C39.0093 4.89375 39.2483 5.20312 39.4733 5.76562C39.7265 6.4125 39.853 6.55313 40.1905 6.62344C40.8093 6.75 41.4562 7.27031 41.7655 7.875C41.9905 8.325 42.0468 8.70469 42.0468 9.98438C42.0468 11.2641 41.9905 11.6438 41.7655 12.0938C41.4562 12.7125 40.9077 13.1344 40.2327 13.3172C39.853 13.4156 39.7265 13.5563 39.4733 14.2031C39.2483 14.7656 39.0093 15.075 38.5593 15.3984C37.9546 15.8063 37.9124 15.8203 36.2249 15.8203C34.5796 15.8203 34.4812 15.8063 33.9046 15.4266C33.3702 15.075 32.9765 14.4563 32.7093 13.5984C32.6671 13.4578 32.4983 13.3594 32.3155 13.3594C31.8233 13.3594 30.9655 12.7125 30.6562 12.0938C30.2483 11.2922 30.2483 8.67656 30.6562 7.88906C30.9937 7.21406 31.4999 6.79219 32.2171 6.60938C32.5405 6.51094 32.7655 6.37031 32.7655 6.24375C32.7655 5.93438 33.2577 5.03438 33.5812 4.73906C34.1437 4.23281 34.8608 4.07812 36.4499 4.12031C37.8562 4.14844 37.9827 4.17656 38.5593 4.58438Z" fill="#1093A5"/>
</svg>
