<svg width="73" height="73" viewBox="0 0 73 73" fill="none" xmlns="http://www.w3.org/2000/svg">
<g clip-path="url(#clip0_27_12)">
<path d="M43.9141 0.0998039C41.2478 0.527538 38.9809 1.46856 37.0133 2.96563C36.5285 3.32207 32.7787 6.97207 28.6582 11.0783L21.1729 18.5352L31.5811 28.9434L41.9893 39.3516L49.4176 31.909C53.4953 27.8027 57.1311 24.0672 57.4875 23.5824C59.7402 20.6168 60.7525 17.0666 60.4389 13.3025C59.8828 6.71543 54.9496 1.35449 48.4053 0.213867C47.2646 0.0142555 44.798 -0.0427742 43.9141 0.0998039ZM41.4902 10.1373C41.9465 10.6078 42.1318 11.2066 41.9893 11.8482C41.8609 12.4328 35.0172 19.2338 34.29 19.4904C32.9926 19.9467 31.7094 18.7775 32.0088 17.423C32.0658 17.1379 33.2207 15.8975 35.7586 13.3738C39.5797 9.55273 39.6082 9.53848 40.6775 9.68105C40.8914 9.70957 41.2621 9.90918 41.4902 10.1373Z" fill="#04607A"/>
<path d="M11.0356 28.6868C6.94358 32.793 3.26506 36.5856 2.86584 37.1417C1.92483 38.3964 0.969556 40.3212 0.470532 41.9893C0.114087 43.187 0.0855713 43.4436 0.0855713 45.9815C0.0855713 48.5194 0.114087 48.7618 0.470532 49.9594C2.06741 55.1208 5.80295 58.7565 10.9643 60.1253C12.1619 60.4532 12.6182 60.496 14.6143 60.496C16.6389 60.5102 17.0524 60.4674 18.3213 60.1253C20.0037 59.669 21.7289 58.8706 23.1405 57.8868C23.8248 57.4305 26.7619 54.579 31.7949 49.546L39.4229 41.918L29.086 31.5811C23.3971 25.8923 18.6778 21.2442 18.6065 21.2442C18.5209 21.2442 15.1133 24.5948 11.0356 28.6868Z" fill="#1093A5"/>
<path d="M55.9334 44.1137C50.3159 45.1973 45.8389 49.332 44.3989 54.8213C44.0709 56.0332 44.0139 56.5607 43.9996 58.3145C43.9854 60.9664 44.3704 62.7629 45.3684 64.8018C45.9387 65.9566 46.8084 67.2969 46.9795 67.2969C47.0651 67.2969 51.6989 62.7201 57.3022 57.1168L67.468 46.951L66.4985 46.3094C64.9586 45.2971 63.9321 44.8408 61.9502 44.3133C60.61 43.9568 57.345 43.8428 55.9334 44.1137Z" fill="#1093A5"/>
<path d="M59.6832 59.8258C54.1227 65.4291 49.603 70.0344 49.6315 70.0629C51.2284 71.3176 54.0229 72.4867 56.3612 72.8574C57.8297 73.0998 60.5957 72.9572 62.05 72.5865C65.3151 71.7453 68.2379 69.7635 70.3053 67.0117C71.0895 65.9566 72.2016 63.6326 72.5866 62.2353C73.0143 60.6099 73.1284 57.3734 72.7862 55.7338C72.501 54.308 72.1018 53.1103 71.5457 51.984C70.9754 50.8433 70.1485 49.6172 69.9489 49.6172C69.8633 49.6314 65.2438 54.2224 59.6832 59.8258Z" fill="#04607A"/>
</g>
<defs>
<clipPath id="clip0_27_12">
<rect width="73" height="73" fill="white"/>
</clipPath>
</defs>
</svg>
