<svg width="73" height="73" viewBox="0 0 73 73" fill="none" xmlns="http://www.w3.org/2000/svg">
<g clip-path="url(#clip0_27_22)">
<path d="M25.9491 0.271004C25.0081 0.641708 24.6659 0.855576 23.9388 1.56847C23.2401 2.25284 22.7981 2.99425 22.513 3.92101C22.3847 4.33448 22.3134 6.75831 22.2849 12.8749L22.2278 21.2442L21.7431 21.7433L21.244 22.228L12.8747 22.2851C6.7581 22.3136 4.33427 22.3849 3.9208 22.5132C2.42373 22.9694 1.16904 24.0388 0.484665 25.4503L0.0711885 26.3058L0.028415 36.1437C-0.000100579 43.3866 0.028415 46.1526 0.156735 46.6231C0.641501 48.4481 2.06728 49.9167 3.9208 50.487C4.33427 50.6153 6.7581 50.6866 12.8747 50.7151L21.244 50.7722L21.7431 51.2569L22.2278 51.756L22.2849 60.1253C22.3134 66.2419 22.3847 68.6657 22.513 69.0792C22.9692 70.5763 24.0386 71.831 25.4501 72.5153L26.3056 72.9288L36.1435 72.9716C43.3864 73.0001 46.1524 72.9716 46.623 72.8433C48.448 72.3585 49.9165 70.9327 50.4868 69.0792C50.6151 68.6657 50.6864 66.2419 50.7149 60.1253L50.772 51.756L51.2567 51.2569L51.7558 50.7722L60.1251 50.7151C66.2417 50.6866 68.6655 50.6153 69.079 50.487C70.5761 50.0308 71.8308 48.9614 72.5151 47.5499L72.9286 46.6944V36.5001V26.3058L72.5151 25.4503C71.8308 24.0388 70.5761 22.9694 69.079 22.5132C68.6655 22.3849 66.2417 22.3136 60.1251 22.2851L51.7558 22.228L51.2567 21.7433L50.772 21.2442L50.7149 12.8749C50.6864 6.75831 50.6151 4.33448 50.4868 3.92101C50.0306 2.42393 48.9612 1.16925 47.5497 0.484871L46.6942 0.0713959L36.6425 0.0428772C27.2894 0.0143661 26.5479 0.0286255 25.9491 0.271004ZM46.1524 3.84972C47.0792 4.40577 47.0507 4.16339 47.0507 12.7894C47.0507 17.081 47.1077 20.9733 47.1933 21.4296C47.3786 22.556 47.8491 23.4685 48.6903 24.3097C49.5315 25.1509 50.444 25.6214 51.5704 25.8067C52.0267 25.8923 55.919 25.9493 60.2106 25.9493C68.8366 25.9493 68.5942 25.9208 69.1503 26.8476C69.4212 27.2896 69.4354 27.6317 69.4354 36.4716C69.4354 46.5946 69.464 46.2097 68.5372 46.7657C68.0952 47.0366 67.7673 47.0509 60.2392 47.0509C55.9333 47.0509 52.0267 47.1079 51.5704 47.1935C50.444 47.3788 49.5315 47.8493 48.6903 48.6905C47.8491 49.5317 47.3786 50.4442 47.1933 51.5706C47.1077 52.0269 47.0507 55.9192 47.0507 60.2394C47.0507 67.7675 47.0364 68.0954 46.7655 68.5374C46.2095 69.4642 46.5802 69.4356 36.4999 69.4356C26.4196 69.4356 26.7903 69.4642 26.2343 68.5374C25.9634 68.0954 25.9491 67.7675 25.9491 60.2394C25.9491 55.9192 25.8921 52.0269 25.8065 51.5706C25.6212 50.4442 25.1507 49.5317 24.3095 48.6905C23.4683 47.8493 22.5558 47.3788 21.4294 47.1935C20.9731 47.1079 17.0808 47.0509 12.7606 47.0509C5.23252 47.0509 4.90459 47.0366 4.4626 46.7657C3.53584 46.2097 3.56435 46.5804 3.56435 36.5001C3.56435 26.4198 3.53584 26.7905 4.4626 26.2345C4.90459 25.9636 5.23252 25.9493 12.7606 25.9493C17.0808 25.9493 20.9731 25.8923 21.4294 25.8067C22.5558 25.6214 23.4683 25.1509 24.3095 24.3097C25.1507 23.4685 25.6212 22.556 25.8065 21.4296C25.8921 20.9733 25.9491 17.081 25.9491 12.7894C25.9491 4.16339 25.9206 4.40577 26.8474 3.84972C27.2894 3.57882 27.6315 3.56456 36.4999 3.56456C45.3683 3.56456 45.7104 3.57882 46.1524 3.84972Z" fill="#04607A"/>
<path d="M27.3037 3.66425C26.8189 3.79258 26.4055 4.13477 26.1773 4.63379C25.9777 5.04726 25.9492 6.1166 25.9492 13.274C25.9492 22.3848 25.9635 22.2137 24.9654 23.6822C24.666 24.0957 24.0957 24.666 23.6822 24.9654C22.2137 25.9635 22.3848 25.9492 13.274 25.9492C4.33438 25.9492 4.4627 25.935 3.89238 26.7762C3.65 27.1326 3.63574 27.7314 3.63574 36.5C3.63574 45.2686 3.65 45.8674 3.89238 46.2238C4.4627 47.065 4.33438 47.0508 13.274 47.0508C22.3848 47.0508 22.2137 47.0365 23.6822 48.0346C24.0957 48.334 24.666 48.9043 24.9654 49.3178C25.9635 50.7863 25.9492 50.6152 25.9492 59.726C25.9492 68.6656 25.935 68.5373 26.7762 69.1076C27.1326 69.35 27.7314 69.3643 36.5 69.3643C45.2686 69.3643 45.8674 69.35 46.2238 69.1076C47.065 68.5373 47.0508 68.6656 47.0508 59.726C47.0508 50.6152 47.0365 50.7863 48.0346 49.3178C48.334 48.9043 48.9043 48.334 49.3178 48.0346C50.7863 47.0365 50.6152 47.0508 59.726 47.0508C68.6656 47.0508 68.5373 47.065 69.1076 46.2238C69.35 45.8674 69.3643 45.2686 69.3643 36.5C69.3643 27.7314 69.35 27.1326 69.1076 26.7762C68.5373 25.935 68.6656 25.9492 59.726 25.9492C50.6152 25.9492 50.7863 25.9635 49.3178 24.9654C48.9043 24.666 48.334 24.0957 48.0346 23.6822C47.0365 22.2137 47.0508 22.3848 47.0508 13.274C47.0508 4.33437 47.065 4.46269 46.2238 3.89238C45.8674 3.65 45.2686 3.63574 36.7139 3.62148C31.6951 3.60722 27.4605 3.62148 27.3037 3.66425ZM32.5791 28.5727C33.0781 28.8008 33.848 29.4139 34.9174 30.4404L36.5 31.9803L38.0826 30.4404C40.0645 28.5299 40.7488 28.1734 42.417 28.1592C43.4293 28.1592 43.6717 28.2162 44.5129 28.6297C46.1668 29.4424 47.065 30.7969 47.1648 32.6361C47.2076 33.5059 47.1648 33.8908 46.9082 34.5752C46.6088 35.3736 46.2809 35.7301 42.0178 40.0217C37.1844 44.8836 36.9277 45.0832 36.0295 44.7838C35.7158 44.6697 34.1332 43.1869 30.9822 40.0217C26.7619 35.7871 26.3912 35.3736 26.1061 34.6037C25.5357 33.0496 25.7924 31.3102 26.7762 30.0127C27.3607 29.2285 28.5299 28.4586 29.4281 28.2447C30.3121 28.0309 31.7236 28.1734 32.5791 28.5727Z" fill="#1093A5"/>
<path d="M28.8579 28.5157C26.8476 29.3142 25.6214 31.4813 25.9493 33.62C26.1917 35.0886 26.5054 35.4878 30.797 39.8364C33.0355 42.1034 35.1171 44.128 35.4165 44.3562C36.1579 44.9122 36.8423 44.9122 37.5837 44.3562C37.8831 44.128 39.9648 42.1034 42.2032 39.8364C45.069 36.9421 46.3665 35.5163 46.5946 35.0458C47.8351 32.4937 46.6659 29.4853 44.071 28.5015C43.4437 28.2591 43.0587 28.2163 42.2032 28.2591C40.6776 28.3446 40.0218 28.7153 38.1112 30.5688L36.5001 32.123L34.889 30.5688C32.9357 28.6726 32.3226 28.3304 30.7257 28.2733C29.8417 28.2448 29.4282 28.2876 28.8579 28.5157Z" fill="#ECECEC"/>
</g>
<defs>
<clipPath id="clip0_27_22">
<rect width="73" height="73" fill="white"/>
</clipPath>
</defs>
</svg>
