<svg width="73" height="73" viewBox="0 0 73 73" fill="none" xmlns="http://www.w3.org/2000/svg">
<path d="M13.5449 6.82952C9.82363 7.3428 6.37324 8.36937 3.99219 9.66682C2.55215 10.4653 0.926758 12.0051 0.413477 13.0459L0.0712891 13.7588V32.2227V50.6866L0.413477 51.3994C0.883984 52.3547 2.39531 53.8518 3.65 54.5789C5.475 55.6625 8.52617 56.7319 11.2637 57.2451C12.9746 57.5588 15.8689 57.8867 16.9953 57.8867H17.9648V58.3858C17.9648 58.6567 18.1074 59.2412 18.2643 59.6975C18.6777 60.8096 20.4172 62.5491 22.0141 63.433C24.0957 64.6164 27.1611 65.5717 30.4404 66.085C32.8215 66.4557 38.5531 66.5412 41.2051 66.2418C46.9938 65.5717 51.157 63.9606 53.5096 61.4655C54.4934 60.4246 55.0352 59.3268 55.0352 58.3858V57.8867H56.0047C59.1129 57.8867 64.1316 56.8887 67.083 55.691C69.6494 54.6502 71.8309 52.9535 72.5865 51.3994L72.9287 50.6866V32.2227V13.7588L72.5865 13.0744C71.3746 10.6078 67.7674 8.54046 62.7344 7.41409C60.0111 6.81526 58.7137 6.67268 54.8926 6.60139C51.6275 6.54436 50.8006 6.57288 48.833 6.82952C43.7572 7.47112 39.3801 9.03948 37.1701 10.9785L36.5 11.5774L35.9154 11.0641C33.8195 9.15355 30.0982 7.74202 24.9939 6.90081C22.7697 6.53011 16.0258 6.48733 13.5449 6.82952ZM24.5947 9.76663C28.8863 10.451 32.2512 11.7057 33.9479 13.2313C35.4734 14.6 35.4734 15.6266 33.9479 16.9953C31.3957 19.2908 25.4217 20.8164 18.9629 20.8164C12.5184 20.8164 6.53008 19.2908 3.97793 16.9953C2.45234 15.6266 2.45234 14.6 3.97793 13.2313C5.81719 11.5631 9.78086 10.2086 14.4004 9.62405C16.5818 9.35315 22.5701 9.4387 24.5947 9.76663ZM59.6689 9.76663C63.9605 10.451 67.3254 11.7057 69.0221 13.2313C70.1342 14.2293 70.4051 15.0563 69.9346 15.9545C69.6066 16.5961 68.3947 17.5942 67.1828 18.2358C61.4369 21.2157 50.715 21.7004 43.4863 19.2908C41.59 18.6635 39.9646 17.8223 39.0522 16.9953C37.5266 15.6266 37.5266 14.6 39.0522 13.2313C40.8914 11.5631 44.8551 10.2086 49.4746 9.62405C51.6561 9.35315 57.6443 9.4387 59.6689 9.76663ZM5.26113 21.0588C12.7607 24.4237 25.1365 24.4379 32.5648 21.1016C33.0781 20.8735 33.848 20.46 34.2758 20.1891L35.0742 19.6758V21.9C35.0742 24.4379 35.0314 24.5805 33.9479 25.55C31.3957 27.8455 25.4217 29.3711 18.9629 29.3711C12.5184 29.3711 6.53008 27.8455 3.97793 25.55C2.89434 24.5805 2.85156 24.4379 2.85156 21.9V19.6758L3.65 20.1891C4.09199 20.4742 4.81914 20.8735 5.26113 21.0588ZM40.3354 21.0588C47.835 24.4237 60.2107 24.4379 67.6391 21.1016C68.1523 20.8735 68.9223 20.46 69.35 20.1891L70.1484 19.6758V21.9C70.1484 24.4379 70.1057 24.5805 69.0221 25.55C66.4699 27.8455 60.4959 29.3711 54.0371 29.3711C47.5926 29.3711 41.6043 27.8455 39.0522 25.55C37.9686 24.5805 37.9258 24.4379 37.9258 21.9V19.6758L38.7242 20.1891C39.1662 20.4742 39.8934 20.8735 40.3354 21.0588ZM5.26113 29.6135C12.7607 32.9784 25.1365 32.9926 32.5648 29.6563C33.0781 29.4282 33.848 29.0147 34.2758 28.7438L35.0742 28.2305V30.2836V32.3225L33.4773 32.408C29.2 32.6647 24.7658 33.8053 21.9713 35.4022C21.3867 35.7301 20.4457 36.4287 19.9039 36.9563L18.8916 37.9258H17.6797C16.1398 37.9258 13.0174 37.5694 11.2637 37.1844C8.19824 36.5285 5.31816 35.3166 3.97793 34.1047C2.89434 33.1352 2.85156 32.9926 2.85156 30.4547V28.2305L3.65 28.7438C4.09199 29.0289 4.81914 29.4282 5.26113 29.6135ZM40.3354 29.6135C47.835 32.9784 60.2107 32.9926 67.6391 29.6563C68.1523 29.4282 68.9223 29.0147 69.35 28.7438L70.1484 28.2305V30.4547C70.1484 32.9926 70.1057 33.1352 69.0221 34.1047C67.6676 35.3309 64.8588 36.5143 61.7363 37.1844C59.9684 37.5694 56.8602 37.9258 55.2918 37.9258H54.0514L53.3813 37.2129C51.2426 34.9317 47.008 33.292 41.4475 32.5791C40.5207 32.4651 39.3516 32.3653 38.8383 32.3653H37.9258V30.2979V28.2305L38.7242 28.7438C39.1662 29.0289 39.8934 29.4282 40.3354 29.6135ZM42.417 35.4735C44.5984 35.8727 46.1953 36.2862 47.6781 36.885C53.1531 39.0664 53.6379 41.7612 48.9756 44.0994C45.8816 45.6393 41.5045 46.4805 36.557 46.4805C33.6484 46.4805 31.7949 46.3094 29.3711 45.8246C25.4074 45.0262 22.2279 43.5149 21.2299 41.9323C20.3174 40.5065 20.959 39.209 23.2545 37.8545C25.4359 36.5856 28.6867 35.6731 32.9355 35.1598C33.2064 35.1313 35.1027 35.1313 37.1416 35.1455C40.0217 35.1883 41.2051 35.2596 42.417 35.4735ZM5.31816 38.1967C8.1127 39.4514 12.2617 40.3924 15.7691 40.5778C18.2357 40.7061 17.9648 40.3211 17.9648 43.6289V46.4805H17.2092C16.1256 46.4805 13.0316 46.0955 11.3492 45.7533C8.29805 45.1403 5.36094 43.9141 3.97793 42.6594C2.89434 41.6899 2.85156 41.5473 2.85156 39.0094V36.7852L3.65 37.2985C4.07773 37.5694 4.8334 37.9828 5.31816 38.1967ZM69.9916 41.5188C69.5354 42.6166 67.2398 44.0852 64.5736 44.9692C62.2211 45.7533 58.0008 46.4805 55.7908 46.4805H55.0352V43.6289C55.0352 40.3211 54.7643 40.7061 57.2309 40.5778C61.7363 40.3354 67.1828 38.8383 69.5781 37.1701L70.0771 36.8137L70.1199 38.9666C70.1484 40.3639 70.0914 41.2621 69.9916 41.5188ZM5.31816 46.7514C8.1127 48.0061 12.2617 48.9471 15.7691 49.1325C18.2357 49.2608 17.9648 48.8758 17.9648 52.1836V55.0352H17.2092C16.1256 55.0352 13.0316 54.6502 11.3492 54.308C8.29805 53.695 5.36094 52.4688 3.97793 51.2141C2.89434 50.2446 2.85156 50.102 2.85156 47.5641V45.3399L3.65 45.8532C4.07773 46.1241 4.8334 46.5375 5.31816 46.7514ZM69.9916 50.0735C69.5354 51.1713 67.2398 52.6399 64.5736 53.5239C62.2211 54.308 58.0008 55.0352 55.7908 55.0352H55.0352V52.1836C55.0352 48.8758 54.7643 49.2608 57.2309 49.1325C61.7363 48.8901 67.1828 47.393 69.5781 45.7248L70.0771 45.3684L70.1199 47.5213C70.1484 48.9186 70.0914 49.8168 69.9916 50.0735ZM23.1689 46.7657C26.6621 48.4196 31.082 49.2323 36.5 49.2323C42.8447 49.2323 47.9062 48.0916 51.5848 45.8389L52.1836 45.4682V47.6354C52.1836 49.6742 52.1693 49.8453 51.8414 50.4014C50.8861 52.0268 47.6639 53.5666 43.5576 54.3936C42.5311 54.5932 41.5473 54.8784 41.3477 55.0209C40.592 55.5627 40.6775 56.5893 41.533 57.2309L41.918 57.516L43.6004 57.2024C46.6088 56.6606 49.218 55.7766 51.0857 54.6787L52.1123 54.0657L52.1551 56.2043C52.1836 58.286 52.1836 58.3715 51.8271 58.9703C50.658 60.9664 46.2238 62.7487 40.8344 63.376C38.71 63.6184 34.7605 63.6612 32.6361 63.4473C27.2182 62.8912 22.3705 60.995 21.1729 58.9703C20.8164 58.3715 20.8164 58.286 20.8449 56.2043L20.8877 54.0657L21.8145 54.6217C23.6252 55.7196 27.0898 56.8602 29.9842 57.3164C31.025 57.4875 31.1248 57.4875 31.4813 57.2166C32.3225 56.5893 32.408 55.5627 31.6523 55.0209C31.4527 54.8784 30.4689 54.5932 29.4424 54.3936C25.3361 53.5666 22.1139 52.0268 21.1586 50.4014C20.8307 49.8453 20.8164 49.6742 20.8164 47.6354V45.4682L21.4295 45.8389C21.7574 46.0528 22.5416 46.4662 23.1689 46.7657Z" fill="#151515"/>
<path d="M36.001 55.1636C35.0885 55.5486 34.8461 56.732 35.5447 57.4164C36.4002 58.2861 37.8545 57.6873 37.8545 56.4611C37.8545 55.5201 36.8279 54.8072 36.001 55.1636Z" fill="#151515"/>
<path d="M16.753 9.56709C10.1516 9.89502 4.04924 12.1192 3.07971 14.5431C2.86584 15.0706 2.86584 15.1562 3.07971 15.6837C3.72131 17.2948 7.10042 19.0628 11.1924 19.9468C15.8262 20.9448 22.0569 20.9448 26.7334 19.9468C30.9823 19.0343 34.2758 17.2806 34.8604 15.5981C35.0172 15.1276 35.0172 14.9708 34.8461 14.5431C33.8623 12.1905 27.8455 9.90928 21.8715 9.62412C21.016 9.58135 19.961 9.52432 19.5332 9.4958C19.1055 9.48154 17.8508 9.51006 16.753 9.56709Z" fill="#1093A5"/>
<path d="M51.8272 9.56709C45.2258 9.89502 39.1235 12.1192 38.1539 14.5431C37.9401 15.0706 37.9401 15.1562 38.1539 15.6837C38.7955 17.2948 42.1746 19.0628 46.2666 19.9468C50.9004 20.9448 57.1311 20.9448 61.8076 19.9468C66.0565 19.0343 69.35 17.2806 69.9346 15.5981C70.0914 15.1276 70.0914 14.9708 69.9203 14.5431C68.9365 12.1905 62.9198 9.90928 56.9457 9.62412C56.0903 9.58135 55.0352 9.52432 54.6074 9.4958C54.1797 9.48154 52.925 9.51006 51.8272 9.56709Z" fill="#1093A5"/>
<path d="M2.85156 30.3264C2.85156 32.6504 3.0084 33.1209 4.04922 34.0334C6.31621 36.0295 11.3635 37.498 16.81 37.7547L18.8773 37.8545L19.5902 37.0988C21.2869 35.3023 24.224 33.9193 28.2732 33.0211C29.9271 32.6504 33.2207 32.2227 34.4041 32.2227H35.0742V30.2836V28.3588L34.6465 28.6582C33.7768 29.2713 31.2389 30.3691 29.5422 30.8682C26.1916 31.8234 23.1119 32.2227 18.9629 32.2227C14.8424 32.2227 11.7199 31.8234 8.34082 30.8396C6.67266 30.3691 4.13477 29.257 3.2793 28.6582L2.85156 28.3588V30.3264Z" fill="#1093A5"/>
<path d="M37.9258 30.2693V32.1799L39.3516 32.2797C43.9854 32.5791 48.4053 33.734 51.2426 35.3879C51.7986 35.7158 52.6826 36.4002 53.2102 36.9135L54.1654 37.8545L56.2043 37.7547C61.993 37.4838 67.2969 35.8441 69.3215 33.6912C70.0201 32.9641 70.1484 32.408 70.1484 30.2979V28.3588L69.7207 28.6582C68.851 29.2713 66.3131 30.3691 64.6164 30.8682C61.2658 31.8234 58.1861 32.2227 54.0371 32.2227C49.9166 32.2227 46.7941 31.8234 43.415 30.8396C41.7469 30.3691 39.209 29.257 38.3535 28.6582L37.9258 28.3588V30.2693Z" fill="#1093A5"/>
<path d="M35.1455 35.1742C30.0127 35.331 25.165 36.5857 22.5844 38.4392C20.4029 39.9933 20.3744 41.5474 22.5131 43.0872C28.5156 47.3788 43.9141 47.4929 50.159 43.2869C52.6398 41.6044 52.7254 40.0788 50.3871 38.4107C48.6762 37.1845 45.9672 36.215 42.6166 35.6304C41.2336 35.4023 40.4066 35.331 37.0703 35.1742C36.6426 35.1599 35.7728 35.1599 35.1455 35.1742Z" fill="#1093A5"/>
<path d="M2.85156 47.4359C2.85156 49.0328 2.90859 49.5176 3.12246 49.9738C4.1918 52.3406 10.0803 54.5078 16.368 54.85L17.9648 54.9355V52.1553V49.375L16.2396 49.2895C13.1314 49.1184 10.0232 48.5338 7.27148 47.6213C5.91699 47.165 3.97793 46.2525 3.25078 45.7393L2.85156 45.4684V47.4359Z" fill="#1093A5"/>
<path d="M69.792 45.725C69.293 46.0957 67.3111 47.051 66.1562 47.4787C63.6754 48.3912 59.9398 49.1184 56.7604 49.2895L55.0352 49.375V52.1553V54.9355L56.7176 54.85C63.3332 54.4793 69.3357 52.1268 70.0059 49.6316C70.0914 49.318 70.1342 48.2629 70.1199 47.2791C70.0771 45.5254 70.0771 45.5111 69.792 45.725Z" fill="#1093A5"/>
<path d="M20.8449 56.29C20.8876 58.3716 20.9019 58.4286 21.3011 59.0132C23.3115 61.8933 30.7398 63.7896 38.5958 63.4331C44.5556 63.148 50.0449 61.3087 51.6703 59.056C52.1123 58.4286 52.1123 58.4286 52.155 56.29L52.2121 54.1655L51.4421 54.6075C49.5886 55.6911 47.4499 56.4896 44.741 57.0884C42.0605 57.6872 41.2763 57.6159 40.8914 56.7034C40.706 56.3042 40.6775 56.29 39.9931 56.3755C39.6082 56.4183 38.9808 56.4611 38.6101 56.4611C38.0113 56.4611 37.9257 56.5038 37.9257 56.7605C37.9257 56.9173 37.7404 57.2452 37.5123 57.4734C36.9277 58.0579 36.0722 58.0579 35.4876 57.4734C35.2595 57.2452 35.0742 56.9173 35.0742 56.7605C35.0742 56.5038 34.9886 56.4611 34.5181 56.4611C34.2187 56.4611 33.5914 56.4183 33.1351 56.3755C32.3082 56.29 32.2939 56.29 32.1085 56.7034C31.7236 57.6159 30.9394 57.6872 28.2589 57.0884C25.55 56.4896 23.4113 55.6911 21.5578 54.6075L20.7878 54.1655L20.8449 56.29Z" fill="#1093A5"/>
<path d="M2.85156 21.6433C2.85156 24.0101 2.96562 24.4093 3.9209 25.3218C5.76016 27.0755 10.0945 28.5583 14.8994 29.0859C16.7387 29.2855 21.1871 29.2855 23.0264 29.0859C27.8598 28.5583 32.1514 27.0898 33.9906 25.3218C34.9602 24.4093 35.0742 24.0101 35.0742 21.6433V19.8326L34.1902 20.3886C32.2797 21.572 28.4729 22.7982 25.0082 23.3115C22.5986 23.6822 16.8527 23.7535 14.2578 23.4683C9.90918 22.9693 6.00254 21.8001 3.60723 20.2888L2.85156 19.8183V21.6433Z" fill="#04607A"/>
<path d="M37.9258 21.6433C37.9258 24.0101 38.0398 24.4093 38.9951 25.3218C40.8344 27.0755 45.1688 28.5583 49.9736 29.0859C51.8129 29.2855 56.2613 29.2855 58.1006 29.0859C62.934 28.5583 67.2256 27.0898 69.0648 25.3218C70.0344 24.4093 70.1484 24.0101 70.1484 21.6433V19.8326L69.2645 20.3886C67.3539 21.572 63.5471 22.7982 60.0824 23.3115C57.6729 23.6822 51.927 23.7535 49.332 23.4683C44.9834 22.9693 41.0768 21.8001 38.6814 20.2888L37.9258 19.8183V21.6433Z" fill="#04607A"/>
<path d="M2.85156 38.7527C2.85156 39.7508 2.92285 40.8201 3.0084 41.1338C3.35059 42.3885 5.48926 43.857 8.42637 44.8266C10.8645 45.6535 14.8566 46.3379 17.1094 46.3379H17.9648V43.5861V40.8201L16.2967 40.7346C11.4205 40.4922 6.41602 39.1805 3.60723 37.3982L2.85156 36.9277V38.7527Z" fill="#04607A"/>
<path d="M69.2359 37.5123C66.6553 39.1377 61.3656 40.4922 56.7176 40.7346L55.0352 40.8201V43.5861V46.3379H55.8906C58.0578 46.3379 61.9502 45.682 64.4168 44.8979C67.3396 43.9568 69.6637 42.3885 69.9916 41.1053C70.0914 40.7631 70.1342 39.7223 70.1199 38.7385L70.0771 36.9848L69.2359 37.5123Z" fill="#04607A"/>
<path d="M20.8164 47.3645C20.8164 49.6885 20.9305 50.0734 21.957 51.0715C23.3828 52.4688 26.3057 53.6949 29.7418 54.3508C31.5668 54.693 32.1229 54.9924 32.2654 55.7195C32.3367 56.076 32.4365 56.1473 32.8928 56.2186C33.1922 56.2756 33.8053 56.3184 34.2615 56.3184C34.9602 56.3184 35.0742 56.2756 35.0742 56.0475C35.0742 55.9049 35.2453 55.6197 35.4449 55.4059C36.001 54.8641 36.999 54.8783 37.5408 55.4344C37.7547 55.6482 37.9258 55.9477 37.9258 56.076C37.9258 56.2756 38.0684 56.3184 38.7527 56.3184C39.1947 56.3184 39.8078 56.2756 40.1072 56.2186C40.5635 56.1473 40.6633 56.076 40.7346 55.7195C40.8771 54.9924 41.4332 54.693 43.2582 54.3508C46.6943 53.6949 49.6172 52.4688 51.043 51.0715C52.0695 50.0734 52.1836 49.6885 52.1836 47.3645V45.6107L51.5848 45.9814C49.8738 47.0508 47.1934 48.0488 44.627 48.5906C41.8324 49.1752 40.8344 49.2607 36.3574 49.2607C32.4936 49.2607 31.7949 49.218 30.1553 48.9328C26.4055 48.277 23.5824 47.3217 21.4295 45.9814L20.8164 45.6107V47.3645Z" fill="#04607A"/>
</svg>
