<svg width="78" height="78" viewBox="0 0 78 78" fill="none" xmlns="http://www.w3.org/2000/svg">
<path d="M37.0957 3.89997C36.852 3.93044 36.0902 4.03708 35.4199 4.12848C32.6777 4.47887 27.5285 5.83473 26.4164 6.48981C25.6242 6.93161 25.0453 7.61715 24.5883 8.60739C24.2227 9.36911 24.2227 9.39958 24.2227 15.539C24.2227 20.8863 24.2531 21.7699 24.4664 22.0593C24.8168 22.5621 25.4719 22.5011 26.1574 21.8765C28.3512 19.9113 32.9062 17.7632 36.1969 17.1234C37.7051 16.8492 40.3254 16.8492 41.8793 17.1386C45.0938 17.748 49.6641 19.9265 51.8426 21.8765C52.5281 22.5011 53.1832 22.5621 53.5336 22.0593C53.7469 21.7699 53.7773 20.8863 53.7773 15.539C53.7773 9.73473 53.7469 9.3234 53.4727 8.71403C53.0461 7.75426 52.6043 7.19059 51.9035 6.68786C50.9742 6.01755 46.998 4.87497 43.4637 4.25036C41.7574 3.96091 38.0859 3.76286 37.0957 3.89997ZM40.3406 7.64762L40.3863 8.98825H41.6812H42.9762L42.9305 10.3136L42.8848 11.6543L41.6355 11.7L40.3711 11.7457V13.0101C40.3711 14.4726 40.3711 14.4726 39 14.4726C37.6289 14.4726 37.6289 14.4726 37.6289 13.0101V11.7457L36.3797 11.7L35.1152 11.6543L35.0695 10.3136L35.0238 8.98825H36.334H37.6289V7.72379C37.6289 7.02301 37.6746 6.3984 37.7355 6.33747C37.7965 6.27653 38.3906 6.2613 39.0762 6.27653L40.2949 6.32223L40.3406 7.64762Z" fill="url(#paint0_linear_7_102)"/>
<path d="M37.629 18.9211C34.643 19.1496 30.6059 20.8406 27.9247 22.9582C26.1575 24.3445 25.0911 24.6797 24.0551 24.1313C23.7961 24.0094 23.5372 23.9332 23.4915 23.9942C23.4305 24.0551 23.3848 25.1977 23.4 26.5535C23.4 28.4883 23.4762 29.3567 23.7504 30.6059C24.9997 36.4863 28.3969 42.4734 32.1903 45.4899C33.5918 46.602 35.42 47.5617 36.7911 47.9121C37.9489 48.2016 40.0512 48.2016 41.209 47.9121C45.3223 46.8457 49.1766 43.0371 51.9493 37.2938C53.0004 35.1152 53.7774 32.8758 54.2497 30.6211C54.5239 29.3567 54.6 28.5035 54.6 26.5535C54.6153 25.1977 54.5696 24.0551 54.5086 23.9942C54.4629 23.9332 54.204 24.0094 53.945 24.1313C52.909 24.6797 51.8426 24.3445 50.0754 22.9582C48.0036 21.3129 45.0329 19.8809 42.443 19.2715C40.6758 18.8602 39.4723 18.7688 37.629 18.9211Z" fill="url(#paint1_linear_7_102)"/>
<path d="M26.9649 45.6574C24.9539 45.9773 24.2836 46.1906 23.8266 46.6324C23.1715 47.257 22.5621 48.6586 22.3032 50.0906C22.0137 51.7664 22.0289 52.5129 22.3641 52.6957C22.5164 52.7719 22.7297 53.0004 22.8364 53.1984C22.943 53.3965 23.2629 53.7012 23.5524 53.8535C24.8473 54.5391 26.9649 57.4184 26.9649 58.4695C26.9649 58.7438 27.1477 59.5512 27.3762 60.2824C27.7266 61.4555 27.7875 61.882 27.7875 63.832C27.8028 65.8582 27.7723 66.102 27.4524 66.6961C26.9496 67.6406 25.609 68.25 24.0703 68.25C23.1258 68.25 22.943 68.2043 22.6231 67.8691C22.3793 67.6406 22.2422 67.3207 22.2422 67.0313C22.2422 66.7418 22.3793 66.4219 22.6231 66.1934C22.9582 65.843 23.1106 65.8125 24.2684 65.8125H25.5633L25.6547 65.3402C25.9746 63.6949 25.4262 60.3281 24.6949 59.4902C24.5426 59.3227 24.177 58.759 23.8723 58.2563C23.202 57.1289 22.1508 56.1387 21.4957 55.9863C20.4598 55.7578 19.0735 56.9004 18.1594 58.7285C17.9918 59.0637 17.7176 59.475 17.5348 59.6273C16.8492 60.2367 16.316 63.0703 16.5293 64.8984L16.636 65.8125H17.9918C19.241 65.8125 19.3934 65.843 19.7285 66.1934C20.2313 66.6961 20.216 67.2598 19.6676 67.8082C19.2563 68.2195 19.1344 68.25 18.1442 68.25C17.55 68.25 16.9407 68.1891 16.7883 68.1129C16.6512 68.0367 16.3008 67.8844 16.0266 67.793C15.2649 67.5035 14.6707 66.7266 14.4727 65.7059C14.1985 64.3957 14.366 61.9277 14.8383 60.2824C15.0516 59.5512 15.2344 58.759 15.2344 58.5305C15.2344 57.6316 17.1387 54.9199 18.327 54.1277C18.6926 53.8992 19.2258 53.427 19.5153 53.0918C20.0332 52.5281 20.0789 52.391 20.2313 50.9438C20.3227 50.1059 20.536 48.9785 20.7035 48.4758C20.8559 47.9578 20.9625 47.5313 20.9168 47.5313C20.4446 47.5313 17.7633 49.4203 16.4074 50.7152C13.5891 53.3965 11.761 56.6566 10.9535 60.4957C10.5117 62.5523 10.4813 65.9953 10.8774 67.4883C11.9133 71.434 14.366 73.2164 19.7285 73.9172C21.9375 74.2066 56.2453 74.2066 58.3477 73.9172C63.6035 73.2012 66.041 71.4492 67.0617 67.6863C67.5188 65.9801 67.5188 62.6895 67.0465 60.4957C66.6657 58.6828 65.9192 56.6566 65.1117 55.1941C63.7711 52.8023 61.4707 50.2887 59.2465 48.7957C58.1496 48.0645 56.8242 47.3027 56.8242 47.4398C56.8242 47.4703 56.9309 47.7902 57.068 48.1559C57.3422 48.9328 57.6774 50.5934 57.8145 51.8121C57.9059 52.65 57.9211 52.6652 58.4848 52.848C59.8407 53.2441 61.1813 55.0113 61.3489 56.5957C61.684 59.8711 58.2106 62.4152 55.1942 61.1051C54.2953 60.709 53.168 59.5969 52.7719 58.7133C52.391 57.8297 52.4063 56.1691 52.8176 55.2855C53.2899 54.2496 54.1125 53.4117 55.0875 53.0004L55.9254 52.6348L55.834 51.7207C55.6055 49.4508 54.9199 47.6379 53.945 46.6324C53.4575 46.1297 53.2594 46.0383 52.2539 45.8707C51.6293 45.7641 50.9438 45.6574 50.7305 45.6117C50.3801 45.5508 50.3192 45.6117 50.1668 46.2059C49.6946 47.9578 45.9469 51.8578 40.6453 56.093C39.8379 56.748 39.0914 57.2812 39 57.2812C38.8172 57.2812 36.5625 55.5141 34.7344 53.9449C30.7125 50.4867 28.0465 47.4703 27.7875 46.0688C27.7418 45.7793 27.6199 45.566 27.5133 45.566C27.4219 45.5813 27.1782 45.627 26.9649 45.6574ZM58.8809 66.2086C59.3989 66.7723 59.3836 67.3969 58.82 67.9605L58.3782 68.4023H53.0309C47.7141 68.4023 47.6989 68.4023 47.318 68.052C46.7086 67.534 46.6629 66.8789 47.1504 66.3L47.5617 65.8125H53.0309H58.5153L58.8809 66.2086Z" fill="url(#paint2_linear_7_102)"/>
<path d="M55.8035 55.1484C54.7981 55.7578 54.4629 56.8699 54.9809 57.9211C55.377 58.7437 55.9711 59.1094 56.9309 59.1094C57.8602 59.1094 58.5152 58.7133 58.8656 57.9668C59.5512 56.5348 58.4848 54.8438 56.9004 54.8438C56.5652 54.8438 56.0777 54.9809 55.8035 55.1484Z" fill="url(#paint3_linear_7_102)"/>
<defs>
<linearGradient id="paint0_linear_7_102" x1="53.2671" y1="22.3102" x2="37.2007" y2="-5.68778" gradientUnits="userSpaceOnUse">
<stop offset="0.151042" stop-color="#1093A5"/>
<stop offset="0.748485" stop-color="#60D3E2"/>
</linearGradient>
<linearGradient id="paint1_linear_7_102" x1="54.0642" y1="47.9943" x2="25.0186" y2="14.1504" gradientUnits="userSpaceOnUse">
<stop offset="0.151042" stop-color="#1093A5"/>
<stop offset="0.748485" stop-color="#60D3E2"/>
</linearGradient>
<linearGradient id="paint2_linear_7_102" x1="66.4219" y1="74.0027" x2="44.6469" y2="26.6725" gradientUnits="userSpaceOnUse">
<stop offset="0.151042" stop-color="#1093A5"/>
<stop offset="0.748485" stop-color="#60D3E2"/>
</linearGradient>
<linearGradient id="paint3_linear_7_102" x1="59.0023" y1="59.0897" x2="54.7447" y2="54.3569" gradientUnits="userSpaceOnUse">
<stop offset="0.151042" stop-color="#1093A5"/>
<stop offset="0.748485" stop-color="#60D3E2"/>
</linearGradient>
</defs>
</svg>
