<svg width="44" height="44" viewBox="0 0 44 44" fill="none" xmlns="http://www.w3.org/2000/svg">
<path d="M4.57187 0.223438C4.09062 0.464062 3.78125 0.799217 3.56641 1.31484C3.45469 1.58984 3.4375 3.60938 3.4375 19.1039V36.575L3.67813 37.0477C3.96172 37.6148 4.47734 38.0187 5.07031 38.1477C5.31094 38.1992 6.33359 38.2422 7.33906 38.2422H9.17812L9.2125 40.3305C9.25547 42.5992 9.28984 42.7625 9.79688 43.3469C9.94297 43.5016 10.2266 43.7164 10.4414 43.8195C10.8281 44 10.8453 44 20.4789 44C29.9664 44 30.1383 44 30.7656 43.8195C32.1578 43.4414 32.4672 43.2094 35.9992 39.8836C37.993 38.0102 39.368 36.6437 39.5914 36.3258C39.7977 36.0422 40.0812 35.4922 40.2359 35.1141L40.5195 34.418L40.5453 20.9258L40.5625 7.425L40.3305 6.96094C40.0383 6.38515 39.5227 5.98125 38.9297 5.85234C38.6891 5.80078 37.6664 5.75781 36.6609 5.75781H34.8219L34.7875 3.66953C34.7531 1.39219 34.7188 1.24609 34.2117 0.670311C34.0656 0.498436 33.7734 0.283592 33.5586 0.18047L33.1719 0H19.0953H5.01875L4.57187 0.223438ZM32.9141 1.80469C33.0773 1.96797 33.0859 2.08828 33.0859 3.86719V5.75781L21.9828 5.775C11.9367 5.80078 10.8453 5.81797 10.5617 5.93828C10.0977 6.15313 9.65938 6.57422 9.43594 7.02969L9.23828 7.43359L9.2125 21.9742L9.19531 36.5234H7.30469C5.52578 36.5234 5.40547 36.5148 5.24219 36.3516C5.07031 36.1797 5.07031 36.068 5.07031 19.0781C5.07031 2.08828 5.07031 1.97656 5.24219 1.80469C5.41406 1.63281 5.52578 1.63281 19.0781 1.63281C32.6305 1.63281 32.7422 1.63281 32.9141 1.80469ZM38.7578 7.64844C38.9297 7.82031 38.9297 7.93203 38.9297 20.7281C38.9297 27.8352 38.8953 33.6875 38.8609 33.7477C38.818 33.825 37.9156 33.8594 35.4922 33.8766L32.1836 33.9023L31.6938 34.1344C31.0492 34.4352 30.5078 34.9508 30.1984 35.5523L29.9492 36.0508L29.9062 39.1875L29.8633 42.3242L20.5648 42.35C11.3523 42.3672 11.2578 42.3672 11.0859 42.1953C10.9141 42.0234 10.9141 41.9203 10.9141 24.9047C10.9141 9.10078 10.9227 7.77734 11.0602 7.63125C11.1891 7.48516 11.7391 7.47656 24.8961 7.47656C38.4742 7.47656 38.5859 7.47656 38.7578 7.64844ZM37.9328 35.6812C37.907 35.7414 36.4805 37.1078 34.7789 38.7062L31.668 41.6195L31.6422 39.0586C31.6164 36.2055 31.625 36.1711 32.2266 35.7758C32.5016 35.5781 32.5531 35.5781 35.243 35.5781C37.4 35.5781 37.9672 35.6039 37.9328 35.6812Z" fill="#04607A"/>
<path d="M16.6375 13.4578C16.3023 13.8016 16.3195 14.343 16.6805 14.6437L16.9469 14.8672H24.9391H32.9312L33.1805 14.618C33.5242 14.2656 33.5242 13.8359 33.1805 13.4836L32.9312 13.2344H24.8961H16.8695L16.6375 13.4578Z" fill="#04607A"/>
<path d="M16.8696 18.6055C16.7235 18.6656 16.5602 18.7945 16.5087 18.8977C16.3454 19.1984 16.3969 19.6539 16.6204 19.9117L16.8266 20.1523H24.9219H33.0173L33.2235 19.9117C33.4641 19.6281 33.4985 19.1297 33.3008 18.8461C33.2235 18.743 33.0258 18.6141 32.8454 18.5625C32.6391 18.5109 29.8719 18.4766 24.836 18.4766C18.4938 18.4852 17.093 18.5023 16.8696 18.6055Z" fill="#04607A"/>
<path d="M16.8782 23.8906C16.4743 24.0539 16.2853 24.6812 16.5087 25.1109C16.7322 25.5234 16.6548 25.5234 24.8532 25.5234C29.872 25.5234 32.6392 25.4891 32.8454 25.4375C33.0259 25.3859 33.2236 25.257 33.3009 25.1539C33.4986 24.8703 33.4642 24.3719 33.2236 24.0883L33.0173 23.8477L25.0337 23.8305C20.6423 23.8219 16.9728 23.8477 16.8782 23.8906Z" fill="#04607A"/>
<path d="M16.8008 29.2359C16.5172 29.3992 16.4227 29.5883 16.4141 29.9578C16.4141 30.2328 16.4656 30.3703 16.6375 30.5422L16.8695 30.7656H21.4586H26.0563L26.3055 30.5164C26.6492 30.1641 26.6492 29.7344 26.3055 29.382L26.0563 29.1328H21.5102C18.2617 29.1414 16.9211 29.1672 16.8008 29.2359Z" fill="#04607A"/>
</svg>
