<svg width="32" height="32" viewBox="0 0 32 32" fill="none" xmlns="http://www.w3.org/2000/svg">
<g clip-path="url(#clip0_18_139)">
<path d="M16.4688 0.0750008C16.425 0.212501 16.1313 2.4625 16.15 2.4875C16.1625 2.5 16.4625 2.5625 16.8188 2.625C19.9313 3.1875 22.7938 4.69375 25.0563 6.94375C27.3 9.18125 28.7313 11.8188 29.4063 14.95C29.4938 15.3375 29.5375 15.4375 29.625 15.4375C29.7813 15.4375 31.9625 15.0563 31.9938 15.025C32.0438 14.975 31.8063 13.875 31.5625 13.0313C30.2188 8.35 27.075 4.425 22.7563 2.0375C21.1563 1.15 19.2063 0.456251 17.3938 0.125001C16.6125 -0.0187492 16.5063 -0.0249987 16.4688 0.0750008Z" fill="#60D3E2"/>
<path d="M4.55008 3.18137C4.06258 3.37512 3.73133 3.66887 2.15633 5.26262C0.593826 6.84387 0.456326 7.01887 0.187576 7.81262C0.012576 8.32512 -0.056174 9.82512 0.056326 10.6314C0.387576 12.9376 1.75008 16.1251 3.60008 18.9439C6.30008 23.0501 10.0313 26.6376 14.1563 29.0751C16.8626 30.6751 19.1938 31.6001 21.2813 31.9126C22.1251 32.0376 23.6126 32.0064 24.0813 31.8501C24.9563 31.5689 25.1376 31.4314 26.7688 29.8126C27.6251 28.9689 28.4126 28.1376 28.5251 27.9689C28.8313 27.5001 28.9563 27.0751 28.9251 26.5439C28.8876 25.7126 28.8251 25.6314 26.2876 23.0814C24.2063 20.9939 24.0001 20.8064 23.5938 20.6126C23.2063 20.4314 23.0938 20.4064 22.6251 20.4064C22.1438 20.4064 22.0501 20.4251 21.6563 20.6189C21.2751 20.8064 21.0251 21.0251 19.7751 22.2626C18.7251 23.3064 18.2938 23.6876 18.1876 23.6876C18.1063 23.6876 17.6938 23.5064 17.2688 23.2814C15.6126 22.4126 14.2501 21.3751 12.5876 19.7189C10.5813 17.7251 9.25008 15.9814 8.53133 14.4064C8.41258 14.1376 8.31258 13.8501 8.31258 13.7626C8.31258 13.6376 8.61258 13.2939 9.71258 12.1876C10.4813 11.4126 11.1813 10.6626 11.2688 10.5251C11.6813 9.85637 11.7188 9.10012 11.3688 8.37512C11.1938 8.01262 10.9126 7.71262 8.91258 5.71262C6.31258 3.11887 6.29383 3.10637 5.37508 3.07512C4.96883 3.06887 4.77508 3.09387 4.55008 3.18137Z" fill="#60D3E2"/>
<path d="M15.9813 7.6C15.8875 8.275 15.8313 8.85 15.8563 8.875C15.8813 8.9 16.1 8.95 16.3313 8.99375C17.2063 9.14375 18.3688 9.61875 19.2313 10.1687C21.0813 11.3375 22.5375 13.4312 22.9438 15.4938C22.9813 15.7062 23.05 15.875 23.0875 15.875C23.15 15.875 25.5125 15.4875 25.5438 15.4688C25.5875 15.45 25.2813 14.2563 25.0875 13.7C23.8938 10.2 20.9563 7.50625 17.3625 6.6C17.0438 6.51875 16.6375 6.43125 16.4688 6.40625L16.1563 6.36875L15.9813 7.6Z" fill="#60D3E2"/>
</g>
<defs>
<clipPath id="clip0_18_139">
<rect width="32" height="32" fill="white"/>
</clipPath>
</defs>
</svg>
